<?xml version="1.0" encoding="UTF-8"?>
<svg width="12px" height="12px" viewBox="0 0 12 12" version="1.1" xmlns="http://www.w3.org/2000/svg" xmlns:xlink="http://www.w3.org/1999/xlink">
    <!-- Generator: Sketch 45.2 (43514) - http://www.bohemiancoding.com/sketch -->
    <title>加号</title>
    <desc>Created with Sketch.</desc>
    <defs></defs>
    <g id="常规发布任务" stroke="none" stroke-width="1" fill="none" fill-rule="evenodd">
        <g id="发布任务_前端" transform="translate(-631.000000, -659.000000)" fill="#3CC8B4">
            <g id="Group">
                <g id="动效网站" transform="translate(173.000000, 411.000000)">
                    <g id="Group-10" transform="translate(270.000000, 154.000000)">
                        <g id="Group-2" transform="translate(175.000000, 86.000000)">
                            <path d="M18.5,13.5 L13.5,13.5 L13.5,13.5 C13.2238576,13.5 13,13.7238576 13,14 C13,14.2761424 13.2238576,14.5 13.5,14.5 L18.5,14.5 L18.5,19.5 C18.5,19.7761424 18.7238576,20 19,20 C19.2761424,20 19.5,19.7761424 19.5,19.5 L19.5,14.5 L24.5,14.5 C24.7761424,14.5 25,14.2761424 25,14 C25,13.7238576 24.7761424,13.5 24.5,13.5 L19.5,13.5 L19.5,8.5 C19.5,8.22385763 19.2761424,8 19,8 L19,8 L19,8 C18.7238576,8 18.5,8.22385763 18.5,8.5 L18.5,8.5 L18.5,13.5 Z" id="加号"></path>
                        </g>
                    </g>
                </g>
            </g>
        </g>
    </g>
</svg>