<?xml version="1.0" encoding="UTF-8" standalone="no"?>
<svg width="18px" height="10px" viewBox="0 0 18 10" version="1.1" xmlns="http://www.w3.org/2000/svg" xmlns:xlink="http://www.w3.org/1999/xlink">
    <!-- Generator: sketchtool 39.1 (31720) - http://www.bohemiancoding.com/sketch -->
    <title>29166858-C3A4-4ED7-9E12-2B559A81BF09</title>
    <desc>Created with sketchtool.</desc>
    <defs></defs>
    <g id="钱包" stroke="none" stroke-width="1" fill="none" fill-rule="evenodd">
        <g id="支付宝管理" transform="translate(-1399.000000, -35.000000)" fill="#FFFFFF">
            <g id="header">
                <g id="user" transform="translate(1254.000000, 24.000000)">
                    <path d="M153.51598,20.8521045 C153.539355,20.8632396 153.559815,20.8827333 153.58319,20.8910918 C154.01003,21.0860572 154.536226,21.0220229 154.878281,20.6766328 L162.692606,12.8053104 C163.119416,12.3763637 163.098956,11.6995525 162.648741,11.2928761 C162.198557,10.8862284 161.488158,10.905722 161.061318,11.3346401 L154.048006,18.3982488 L146.932392,11.3625209 C146.502608,10.9363795 145.792239,10.9252157 145.344969,11.3346687 C145.116933,11.5435745 145.00003,11.8249017 145,12.1034237 C145,12.3708105 145.105245,12.6382259 145.315766,12.8443264 L153.206073,20.6432273 C153.220705,20.6571391 153.244079,20.662721 153.258681,20.6794381 C153.270398,20.6905732 153.279141,20.7017084 153.290858,20.7156488 C153.358067,20.7796831 153.439938,20.8103405 153.51595,20.8521045 L153.51598,20.8521045 L153.51598,20.8521045 Z" id="Fill-1"></path>
                </g>
            </g>
        </g>
    </g>
</svg>