<?xml version="1.0" encoding="UTF-8" standalone="no"?>
<svg width="32px" height="32px" viewBox="0 0 32 32" version="1.1" xmlns="http://www.w3.org/2000/svg" xmlns:xlink="http://www.w3.org/1999/xlink">
    <!-- Generator: sketchtool 39.1 (31720) - http://www.bohemiancoding.com/sketch -->
    <title>9AC8E2E6-F4C7-441D-8470-9FD2B289BA12</title>
    <desc>Created with sketchtool.</desc>
    <defs></defs>
    <g id="钱包" stroke="none" stroke-width="1" fill="none" fill-rule="evenodd">
        <g id="支付宝管理" transform="translate(-929.000000, -295.000000)">
            <g id="Group" transform="translate(20.000000, 102.000000)">
                <g id="支付宝账号" transform="translate(400.000000, 179.000000)">
                    <g id="编辑" transform="translate(510.000000, 15.000000)">
                        <g>
                            <circle id="Oval" stroke-opacity="0.4" stroke="#2CA3EE" fill="#EBF6FD" cx="15" cy="15" r="15"></circle>
                            <path d="M18.5780026,19.9483715 L11.4969246,19.9483715 C11.1303675,19.9483715 10.7488297,19.7916542 10.4600583,19.5110739 C10.1713011,19.2304937 9.99999287,18.86951 9.99999287,18.5133644 L9.99999287,11.3618538 C9.99999287,10.99423 10.1784348,10.6543314 10.492117,10.4164343 C10.7671918,10.2077874 11.1277138,10.0864614 11.4969246,10.0864614 L15.3399674,10.0864614 C15.5327338,10.0864614 15.6890042,10.2396161 15.6890042,10.4269145 C15.6890042,10.6142129 15.5327338,10.7673675 15.3399674,10.7673675 L11.4969246,10.7673675 C11.1181975,10.7673675 10.7007915,11.0009395 10.7007915,11.3618538 L10.7007915,18.5133644 C10.7007915,18.8852303 11.1142169,19.2674793 11.4969246,19.2674793 L18.5780026,19.2674793 C18.9494392,19.2674793 19.1687286,18.8813488 19.1687286,18.5133644 L19.1687286,14.8245661 C19.1687286,14.6372677 19.3263544,14.48543 19.5191207,14.48543 C19.7118871,14.48543 19.8695129,14.6372677 19.8695129,14.8245661 L19.8695129,18.5133644 C19.8695129,18.8721162 19.7552028,19.2126663 19.540479,19.4799661 C19.2956368,19.7847367 18.9563589,19.9483715 18.5780026,19.9483715" id="Fill-1" fill="#2CA3EE"></path>
                            <path d="M14.84703,15.4096757 C14.7338898,15.4096757 14.6207354,15.3677273 14.5344035,15.2838443 C14.3617542,15.1160784 14.3617542,14.8441069 14.5344035,14.6763548 L19.2035409,10.1396746 C19.3761903,9.97192257 19.6561302,9.97192257 19.8287796,10.1396746 C20.001429,10.3074267 20.001429,10.5793982 19.8287796,10.7471502 L15.1596422,15.2838443 C15.0733247,15.3677273 14.9601702,15.4096757 14.84703,15.4096757" id="Fill-4" fill="#2CA3EE"></path>
                        </g>
                    </g>
                </g>
            </g>
        </g>
    </g>
</svg>