<?xml version="1.0" encoding="UTF-8" standalone="no"?>
<svg width="18px" height="16px" viewBox="0 0 18 16" version="1.1" xmlns="http://www.w3.org/2000/svg" xmlns:xlink="http://www.w3.org/1999/xlink">
    <!-- Generator: sketchtool 39.1 (31720) - http://www.bohemiancoding.com/sketch -->
    <title>65ABB9BC-E187-4A1B-AAF6-F741B91B810F</title>
    <desc>Created with sketchtool.</desc>
    <defs></defs>
    <g id="资料" stroke="none" stroke-width="1" fill="none" fill-rule="evenodd">
        <g id="接包方信息评价展开" transform="translate(-285.000000, -857.000000)">
            <g id="Group-2" transform="translate(156.000000, 467.000000)">
                <g id="Group-6" transform="translate(21.000000, 339.000000)">
                    <g id="未认证" transform="translate(108.000000, 51.000000)">
                        <path d="M15.285994,0.309966794 C15.2231714,0.199835001 15.1224883,-0.00135548093 15.0098735,6.88362667e-06 L3.11432143,6.88362667e-06 C2.94918966,-0.000234826214 2.89493679,0.142242138 2.80438349,0.310054688 L0,5.31292103 C0,5.6106636 0.309937937,5.93288479 0.309937937,5.93288479 C0.309937937,5.93288479 8.52653437,15.679065 8.67184593,15.8254094 C8.81555342,15.970633 9.01691969,15.9233458 9.11149416,15.8296942 C9.20428876,15.7361305 17.8213764,5.93288479 17.8213764,5.93288479 C17.8213764,5.93288479 17.9994067,5.59394168 18,5.31292103 L15.285994,0.309966794 Z" id="Page-1" fill="#D9D9D9"></path>
                        <polygon id="Path" fill="#FFFFFF" points="14.1123829 4.66511668 14.0929802 4.66795128 8.88283665 12.7730536 3.97757714 4.64966922 2.71022652 4.64314306 2.70721614 3.07444619 6.52959359 3.08009341 9.62763256 8.57582809 13.2298343 3.08378498 15.2382014 3.08378498 15.2411898 4.66786338"></polygon>
                    </g>
                </g>
            </g>
        </g>
    </g>
</svg>