<?xml version="1.0" encoding="UTF-8" standalone="no"?>
<svg width="14px" height="14px" viewBox="0 0 14 14" version="1.1" xmlns="http://www.w3.org/2000/svg" xmlns:xlink="http://www.w3.org/1999/xlink">
    <!-- Generator: sketchtool 39.1 (31720) - http://www.bohemiancoding.com/sketch -->
    <title>01C12FB3-760D-4E14-84E7-7B6FF1B14C01</title>
    <desc>Created with sketchtool.</desc>
    <defs></defs>
    <g id="资料" stroke="none" stroke-width="1" fill="none" fill-rule="evenodd">
        <g id="认证发包方" transform="translate(-622.000000, -908.000000)" fill="#323A45">
            <g id="任务信息" transform="translate(176.000000, 453.000000)">
                <g id="测试中" transform="translate(54.000000, 388.000000)">
                    <g id="任务类型" transform="translate(390.000000, 63.000000)">
                        <g id="Service" transform="translate(2.000000, 1.000000)">
                            <g id="Group-4" transform="translate(0.000000, 3.000000)">
                                <path d="M11.725,5.1625 C11.4625,5.1625 11.2875,4.9875 11.2875,4.725 C11.2875,4.4625 11.4625,4.2875 11.725,4.2875 C11.9875,4.2875 12.1625,4.4625 12.1625,4.725 C12.1625,4.9875 11.9875,5.1625 11.725,5.1625 L11.725,5.1625 Z M9.975,5.1625 C9.7125,5.1625 9.5375,4.9875 9.5375,4.725 C9.5375,4.4625 9.7125,4.2875 9.975,4.2875 C10.2375,4.2875 10.4125,4.4625 10.4125,4.725 C10.4125,4.9875 10.2375,5.1625 9.975,5.1625 L9.975,5.1625 Z M10.7625,0.4375 L2.7125,0.4375 L0.0875,2.5375 L0.0875,5.775 L13.2125,5.775 L13.2125,2.5375 L10.7625,0.4375 Z" id="Fill-5"></path>
                                <path d="M9.975,7.875 C10.2375,7.875 10.4125,8.05 10.4125,8.3125 C10.4125,8.575 10.2375,8.75 9.975,8.75 C9.7125,8.75 9.5375,8.575 9.5375,8.3125 C9.5375,8.05 9.7125,7.875 9.975,7.875 M11.725,7.875 C11.9875,7.875 12.1625,8.05 12.1625,8.3125 C12.1625,8.575 11.9875,8.75 11.725,8.75 C11.4625,8.75 11.2875,8.575 11.2875,8.3125 C11.2875,8.05 11.4625,7.875 11.725,7.875 M0.0875,9.975 L13.2125,9.975 L13.2125,6.5625 L0.0875,6.5625 L0.0875,9.975" id="Fill-7"></path>
                                <path d="M9.975,11.6375 C10.2375,11.6375 10.4125,11.8125 10.4125,12.075 C10.4125,12.3375 10.2375,12.5125 9.975,12.5125 C9.7125,12.5125 9.5375,12.3375 9.5375,12.075 C9.5375,11.8125 9.7125,11.6375 9.975,11.6375 M11.725,11.6375 C11.9875,11.6375 12.1625,11.8125 12.1625,12.075 C12.1625,12.3375 11.9875,12.5125 11.725,12.5125 C11.4625,12.5125 11.2875,12.3375 11.2875,12.075 C11.2875,11.8125 11.4625,11.6375 11.725,11.6375 M0.0875,13.5625 L13.2125,13.5625 L13.2125,10.675 L0.0875,10.675 L0.0875,13.5625" id="Fill-9"></path>
                            </g>
                        </g>
                    </g>
                </g>
            </g>
        </g>
    </g>
</svg>