<?xml version="1.0" encoding="UTF-8" standalone="no"?>
<svg width="84px" height="95px" viewBox="0 0 84 95" version="1.1" xmlns="http://www.w3.org/2000/svg" xmlns:xlink="http://www.w3.org/1999/xlink">
    <!-- Generator: sketchtool 39.1 (31720) - http://www.bohemiancoding.com/sketch -->
    <title>D7811F8D-5726-43BE-9A39-9038ACAB7C48</title>
    <desc>Created with sketchtool.</desc>
    <defs></defs>
    <g id="资料" stroke="none" stroke-width="1" fill="none" fill-rule="evenodd">
        <g id="接包方信息评价展开" transform="translate(-966.000000, -115.000000)" stroke="#000000" fill="#FFFFFF">
            <g id="资料" transform="translate(156.000000, 82.000000)">
                <g id="Group-8" transform="translate(278.000000, 0.000000)">
                    <g id="Web-" transform="translate(533.000000, 34.000000)">
                        <path d="M38.4041622,0.621448631 C39.8378038,-0.206805832 42.1610064,-0.207493184 43.5958378,0.621448631 L79.4041622,21.308909 C80.8378038,22.1371635 82,24.1500875 82,25.8079711 L82,67.1828918 C82,68.8394008 80.8389936,70.8530121 79.4041622,71.681954 L43.5958378,92.3694143 C42.1621962,93.1976688 39.8389936,93.1983561 38.4041622,92.3694143 L2.59583781,71.681954 C1.16219617,70.8536995 -4.29315004e-13,68.8407755 -4.30230969e-13,67.1828918 L-4.53090225e-13,25.8079711 C-4.5400543e-13,24.1514622 1.16100642,22.1378508 2.59583781,21.308909 L38.4041622,0.621448631 Z" id="Polygon"></path>
                    </g>
                </g>
            </g>
        </g>
    </g>
</svg>