<?xml version="1.0" encoding="UTF-8" standalone="no"?>
<svg width="32px" height="32px" viewBox="0 0 32 32" version="1.1" xmlns="http://www.w3.org/2000/svg" xmlns:xlink="http://www.w3.org/1999/xlink">
    <!-- Generator: Sketch 39.1 (31720) - http://www.bohemiancoding.com/sketch -->
    <title>通知2</title>
    <desc>Created with Sketch.</desc>
    <defs>
        <circle id="path-1" cx="16" cy="16" r="16"></circle>
        <mask id="mask-2" maskContentUnits="userSpaceOnUse" maskUnits="objectBoundingBox" x="0" y="0" width="32" height="32" fill="white">
            <use xlink:href="#path-1"></use>
        </mask>
    </defs>
    <g id="Symbols" stroke="none" stroke-width="1" fill="none" fill-rule="evenodd">
        <g id="通知2">
            <use id="bound" stroke-opacity="0.4" stroke="#FFFFFF" mask="url(#mask-2)" stroke-width="2" fill="#FFFFFF" xlink:href="#path-1"></use>
            <g id="icon" transform="translate(9.000000, 8.000000)" fill="#3462FF">
                <path d="M7,16 C8.1045695,16 9,15.1045695 9,14 C9,14 5,14 5,14 C5,15.1045695 5.8954305,16 7,16 Z" id="Oval-2"></path>
                <path d="M1.25153753,12.6072653 L1.25153753,12.6072653 C1.32870637,12.4371935 1.39791886,12.2321359 1.45999532,12 L12.5399007,12 C12.6019976,12.2321568 12.6712367,12.4372328 12.7484394,12.607321 L12.5857864,13 L11.8263604,13 C11.4512732,12.1715313 11.2552472,10.8899929 11.127587,9.11868261 C11.0703734,8.32483095 11.0346912,7.47886338 11.0158574,6.60545643 C11.0031877,6.01790527 11,5.57683296 11,5 C11,2.790861 9.209139,1 7,1 C4.790861,1 3,2.790861 3,5 L3,5.00000006 C3,5.56633876 2.99693205,5.99888693 2.98472871,6.57606402 C2.96659712,7.43362731 2.93224137,8.26620044 2.87715845,9.0502522 C2.75027764,10.8562771 2.55348527,12.1607699 2.17353971,13 L1.41421356,13 L1.25153753,12.6072653 Z M1.45999532,12 C2.00000001,9.98064407 2,5.91219161 2,5 C2,2.23857625 4.23857625,0 7,0 C9.76142375,0 12,2.23857625 12,5 C12,5.91589269 12,9.98151808 12.5399007,12 L13.5017326,12 C13.7769181,12 14,12.2319336 14,12.5 C14,12.7761424 13.7800934,13 13.5017326,13 L0.498267412,13 C0.223081919,13 0,12.7680664 0,12.5 C0,12.2238576 0.219906569,12 0.498267412,12 L1.45999532,12 Z" id="Shape"></path>
            </g>
        </g>
    </g>
</svg>