<?xml version="1.0" encoding="UTF-8" standalone="no"?>
<svg width="16px" height="15px" viewBox="0 0 16 15" version="1.1" xmlns="http://www.w3.org/2000/svg" xmlns:xlink="http://www.w3.org/1999/xlink">
    <!-- Generator: sketchtool 39.1 (31720) - http://www.bohemiancoding.com/sketch -->
    <title>AC34CFF5-CD79-473A-852D-F32E2DDAD83F</title>
    <desc>Created with sketchtool.</desc>
    <defs></defs>
    <g id="资料" stroke="none" stroke-width="1" fill="none" fill-rule="evenodd">
        <g id="接包方信息" transform="translate(-228.000000, -282.000000)" fill="#2B78BE">
            <g id="资料" transform="translate(156.000000, 82.000000)">
                <g id="个人信息">
                    <g id="Group-6" transform="translate(52.000000, 192.000000)">
                        <g id="性别" transform="translate(20.000000, 8.000000)">
                            <path d="M5.2,12.7 C3.6,12.7 2.3,11.4 2.3,9.8 C2.3,8.2 3.6,6.9 5.2,6.9 C6.8,6.9 8.1,8.2 8.1,9.8 C8.1,11.4 6.8,12.7 5.2,12.7 M14.9,0.7 C14.8,0.4 14.6,0.2 14.3,0.1 C14.1,1.77635684e-15 14,1.77635684e-15 13.8,1.77635684e-15 L6.9,1.77635684e-15 C6.3,1.77635684e-15 5.8,0.5 5.8,1.2 C5.8,1.8 6.3,2.4 7,2.4 L11.1,2.4 L7.9,5.4 C7.1,4.9 6.2,4.6 5.2,4.6 C2.3,4.6 0,6.9 0,9.8 C0,12.7 2.3,15 5.2,15 C8.1,15 10.4,12.7 10.4,9.8 C10.4,8.8 10.1,7.8 9.6,7 L12.7,3.9 L12.7,8 C12.7,8.6 13.2,9.2 13.9,9.2 C14.5,9.2 15.1,8.7 15.1,8 L15.1,1.2 C15,1 15,0.9 14.9,0.7" id="Page-1"></path>
                        </g>
                    </g>
                </g>
            </g>
        </g>
    </g>
</svg>