<?xml version="1.0" encoding="UTF-8" standalone="no"?>
<svg width="67px" height="15px" viewBox="0 0 67 15" version="1.1" xmlns="http://www.w3.org/2000/svg" xmlns:xlink="http://www.w3.org/1999/xlink">
    <!-- Generator: sketchtool 39.1 (31720) - http://www.bohemiancoding.com/sketch -->
    <title>FAEC7374-7E2C-48FD-BCC0-B475DDF0B140</title>
    <desc>Created with sketchtool.</desc>
    <defs></defs>
    <g id="资料" stroke="none" stroke-width="1" fill="none" fill-rule="evenodd">
        <g id="认证发包方" transform="translate(-711.000000, -587.000000)">
            <g id="任务信息" transform="translate(176.000000, 453.000000)">
                <g id="招募中" transform="translate(54.000000, 68.000000)">
                    <g id="测试类型" transform="translate(481.000000, 65.000000)">
                        <g id="功能测试">
                            <path d="M12.8736493,13.6 L13.4811781,14.2 L13.2786685,15 L12.569885,15.2 L11.9623562,14.6 L12.1648658,13.8 L12.8736493,13.6 Z M12.6711397,1 L8.62094801,5.2 C8.7222028,5.7 8.51969322,6.2 8.21592884,6.5 C7.81090966,6.9 7.30463569,7.1 6.89961652,7 L5.98832338,8 L6.79836173,8.9 L2.74816999,13.1 L2.64691519,12.9 L1.83687685,13.5 L0.52056453,15.6 L0.82432891,16 L2.84942478,14.6 L3.45695354,13.8 L3.35569875,13.6 L7.40589049,9.4 L8.21592884,10.3 L9.12722198,9.3 C9.02596718,8.8 9.22847677,8.3 9.53224115,8 C9.83600553,7.6 10.3422795,7.5 10.8485535,7.5 L15,3.3 L12.6711397,1 Z M5.48204941,2.3 C4.67201106,1.4 3.45695354,1.1 2.34315081,1.4 L4.1657371,3.3 L3.65946313,5.2 L1.93813164,5.7 L0.115545356,3.8 C-0.188219025,4.9 0.115545356,6.1 0.925583704,7 C1.83687685,7.9 3.05193437,8.2 4.1657371,7.8 L5.684559,9.4 L6.19083297,8.9 L5.684559,8.3 L5.38079462,8 L6.69710693,6.6 L6.89961652,6.6 L7.00087131,6.6 L7.30463569,6.6 L6.29208776,5.6 L6.19083297,5.5 C6.59585214,4.4 6.29208776,3.2 5.48204941,2.3 L5.48204941,2.3 Z M11.6585918,15.5 C11.9623562,15.8 12.3673754,16 12.7723945,16 C13.1774137,16 13.5824329,15.8 13.8861973,15.5 C14.493726,14.9 14.493726,13.9 13.8861973,13.3 L9.53224115,8.9 L9.53224115,9.3 L9.53224115,9.5 L9.43098636,9.7 L8.51969322,10.7 L8.21592884,10.9 L7.40589049,10 L6.89961652,10.6 L11.6585918,15.5 Z" id="Fill-1" fill="#6C7686"></path>
                            <text font-family=".PingFangSC-Regular, .PingFang SC" font-size="12" font-weight="normal" line-spacing="16" fill="#6C7786">
                                <tspan x="19" y="12">功能测试</tspan>
                            </text>
                        </g>
                    </g>
                </g>
            </g>
        </g>
    </g>
</svg>