<?xml version="1.0" encoding="UTF-8" standalone="no"?>
<svg width="15px" height="13px" viewBox="0 0 15 13" version="1.1" xmlns="http://www.w3.org/2000/svg" xmlns:xlink="http://www.w3.org/1999/xlink">
    <!-- Generator: sketchtool 39.1 (31720) - http://www.bohemiancoding.com/sketch -->
    <title>14F52679-F047-4720-90A1-16A7ED02C2FF</title>
    <desc>Created with sketchtool.</desc>
    <defs></defs>
    <g id="资料" stroke="none" stroke-width="1" fill="none" fill-rule="evenodd">
        <g id="认证发包方" transform="translate(-623.000000, -1014.000000)" fill="#323A45">
            <g id="任务信息" transform="translate(176.000000, 453.000000)">
                <g id="已完成" transform="translate(54.000000, 494.000000)">
                    <g id="任务类型" transform="translate(392.000000, 63.000000)">
                        <g id="PC安装包" transform="translate(1.000000, 1.000000)">
                            <g id="Group-5" transform="translate(0.000000, 3.000000)">
                                <path d="M3.65625,3.98125 C3.33125,3.98125 2.84375,3.7375 2.84375,3.33125 C2.84375,2.925 3.16875,2.68125 3.65625,2.68125 C3.98125,2.68125 4.30625,2.925 4.30625,3.33125 C4.30625,3.65625 4.0625,3.98125 3.65625,3.98125 M7.3125,2.6 C7.6375,2.6 7.9625,2.84375 7.9625,3.25 C7.9625,3.65625 7.71875,3.9 7.3125,3.9 C6.90625,3.9 6.5,3.65625 6.5,3.25 C6.5,2.84375 6.90625,2.6 7.3125,2.6 M10.075,4.0625 L10.5625,4.0625 C10.15625,1.86875 7.9625,0.325 5.3625,0.325 C2.51875,0.325 0.1625,2.35625 0.1625,4.875 C0.1625,6.3375 0.975,7.55625 2.275,8.53125 L1.7875,10.15625 L3.575,9.2625 C4.225,9.425 4.7125,9.50625 5.3625,9.50625 L5.85,9.50625 C5.6875,9.1 5.6875,8.69375 5.6875,8.2875 C5.6875,5.93125 7.6375,4.0625 10.075,4.0625" id="Fill-5"></path>
                                <path d="M11.78125,7.55625 C11.5375,7.55625 11.29375,7.3125 11.29375,6.9875 C11.29375,6.74375 11.5375,6.41875 11.78125,6.41875 C12.1875,6.41875 12.43125,6.6625 12.43125,6.9875 C12.43125,7.3125 12.26875,7.55625 11.78125,7.55625 M8.9375,7.55625 C8.69375,7.55625 8.45,7.3125 8.45,6.9875 C8.45,6.74375 8.69375,6.41875 8.9375,6.41875 C9.2625,6.41875 9.5875,6.6625 9.5875,6.9875 C9.5875,7.3125 9.34375,7.55625 8.9375,7.55625 M14.7875,8.20625 C14.7875,6.0125 12.675,4.30625 10.4,4.30625 C7.9625,4.30625 6.0125,6.0125 6.0125,8.20625 C6.0125,10.4 7.9625,12.10625 10.4,12.10625 C10.8875,12.10625 11.45625,11.94375 11.94375,11.8625 L13.325,12.675 L13,11.29375 C13.975,10.48125 14.7875,9.425 14.7875,8.20625" id="Fill-7"></path>
                            </g>
                        </g>
                    </g>
                </g>
            </g>
        </g>
    </g>
</svg>