<?xml version="1.0" encoding="UTF-8" standalone="no"?>
<svg width="24px" height="22px" viewBox="0 0 24 22" version="1.1" xmlns="http://www.w3.org/2000/svg" xmlns:xlink="http://www.w3.org/1999/xlink">
    <!-- Generator: sketchtool 39.1 (31720) - http://www.bohemiancoding.com/sketch -->
    <title>824DBBBF-AEAD-4C64-8460-12AFE38DC5C7</title>
    <desc>Created with sketchtool.</desc>
    <defs></defs>
    <g id="资料" stroke="none" stroke-width="1" fill="none" fill-rule="evenodd">
        <g id="接包方信息评价展开" transform="translate(-305.000000, -1323.000000)" fill="#6B7584">
            <g id="项目经验" transform="translate(156.000000, 1194.000000)">
                <g id="项目" transform="translate(20.000000, 75.000000)">
                    <g id="测试类型" transform="translate(129.855621, 54.000000)">
                        <g id="自动化测试">
                            <path d="M16.4960947,16.1333333 C16.9459882,16.1333333 17.2459172,16.4266667 17.2459172,16.8666667 C17.2459172,17.3066667 16.9459882,17.6 16.4960947,17.6 L13.4968047,17.6 C13.0469112,17.6 12.7469822,17.3066667 12.7469822,16.8666667 L12.7469822,13.9333333 C12.7469822,13.4933333 13.0469112,13.2 13.4968047,13.2 C13.9466982,13.2 14.2466272,13.4933333 14.2466272,13.9333333 L14.2466272,15.2533333 C15.5963077,14.2266667 16.4960947,12.76 16.4960947,11 C16.4960947,8.21333333 14.0966627,5.86666667 11.2473373,5.86666667 C10.7974438,5.86666667 10.4975148,5.57333333 10.4975148,4.98666667 C10.4975148,4.69333333 10.7974438,4.4 11.2473373,4.4 C14.9964497,4.4 17.9957396,7.33333333 17.9957396,11 C17.9957396,13.0533333 17.0959527,14.96 15.4463432,16.1333333 L16.4960947,16.1333333 Z M11.2473373,17.6 C7.49822485,17.6 4.49893491,14.6666667 4.49893491,11 C4.49893491,8.94666667 5.39872189,7.04 7.04833136,5.86666667 L5.99857988,5.86666667 C5.39872189,5.86666667 5.0987929,5.57333333 5.0987929,4.98666667 C5.0987929,4.4 5.39872189,4.25333333 5.99857988,4.25333333 L8.99786982,4.25333333 C9.44776331,4.25333333 9.74769231,4.54666667 9.74769231,4.98666667 L9.74769231,7.92 C9.74769231,8.50666667 9.44776331,8.8 8.99786982,8.8 C8.54797633,8.8 8.24804734,8.50666667 8.24804734,8.06666667 L8.24804734,6.74666667 C6.89836686,7.62666667 5.99857988,9.24 5.99857988,11 C5.99857988,13.7866667 8.39801183,16.1333333 11.2473373,16.1333333 C11.6972308,16.1333333 11.9971598,16.4266667 11.9971598,17.0133333 C11.9971598,17.3066667 11.6972308,17.6 11.2473373,17.6 L11.2473373,17.6 Z M11.2473373,0 C4.9488284,0 0,4.84 0,11 C0,17.16 4.9488284,22 11.2473373,22 C17.5458462,22 22.4946746,17.16 22.4946746,11 C22.4946746,4.84 17.5458462,0 11.2473373,0 L11.2473373,0 Z" id="Page-1"></path>
                        </g>
                    </g>
                </g>
            </g>
        </g>
    </g>
</svg>