<?xml version="1.0" encoding="UTF-8" standalone="no"?>
<svg width="10px" height="10px" viewBox="0 0 10 10" version="1.1" xmlns="http://www.w3.org/2000/svg" xmlns:xlink="http://www.w3.org/1999/xlink">
    <!-- Generator: sketchtool 39.1 (31720) - http://www.bohemiancoding.com/sketch -->
    <title>79BD5812-6D94-44FE-87D7-9A8168499BEE</title>
    <desc>Created with sketchtool.</desc>
    <defs></defs>
    <g id="资料" stroke="none" stroke-width="1" fill="none" fill-rule="evenodd">
        <g id="接包方设置－添加工具" transform="translate(-1197.000000, -203.000000)" fill="#48A0FF">
            <g id="测试工具" transform="translate(1100.000000, 87.000000)">
                <g transform="translate(28.000000, 106.000000)" id="Fill-1">
                    <path d="M75.2876776,14.9946887 L78.7233687,11.5566422 C79.0784522,11.2004932 79.0800636,10.6225415 78.7233687,10.2664083 C78.3690752,9.91106559 77.7907137,9.91106559 77.434003,10.2671988 L73.9985536,13.7046709 L70.5666701,10.270408 C70.2091695,9.91427486 69.630808,9.91427486 69.2765145,10.270408 C68.9206253,10.6266203 68.9214152,11.2045087 69.2765145,11.5606577 L72.7087339,14.99525 L69.26762,18.4383899 C68.9109251,18.796183 68.9109251,19.373281 69.2668301,19.7286237 C69.6227193,20.0855632 70.2002276,20.0855632 70.5569857,19.7286237 L73.9979215,16.285329 L77.4437032,19.733493 C77.7996556,20.0888357 78.3779538,20.0888357 78.7330531,19.733493 C79.0898112,19.3773598 79.0881524,18.8001986 78.7330531,18.4424529 L75.2876776,14.9946887 Z"></path>
                </g>
            </g>
        </g>
    </g>
</svg>