<?xml version="1.0" encoding="UTF-8" standalone="no"?>
<svg width="26px" height="16px" viewBox="0 0 26 16" version="1.1" xmlns="http://www.w3.org/2000/svg" xmlns:xlink="http://www.w3.org/1999/xlink">
    <!-- Generator: sketchtool 39.1 (31720) - http://www.bohemiancoding.com/sketch -->
    <title>6738CBEC-DA3F-4B2E-A1F1-CD29E0C35A2C</title>
    <desc>Created with sketchtool.</desc>
    <defs></defs>
    <g id="钱包" stroke="none" stroke-width="1" fill="none" fill-rule="evenodd">
        <g id="支付宝管理" transform="translate(-40.000000, -154.000000)" fill="#3462FF">
            <g id="Group" transform="translate(20.000000, 102.000000)">
                <path d="M44.8689695,60.9168864 L24.1159784,60.9168864 L29.4153827,66.0215663 C29.5510372,66.1573377 29.5510372,66.3773957 29.4153827,66.5132025 L28.3509046,67.57832 C28.2152146,67.714056 27.9952887,67.714056 27.8595634,67.57832 L21.1884073,61.1521244 C21.180698,61.145649 21.1730948,61.1389613 21.1658453,61.1317428 L21.1302342,61.0960749 L20.1013672,60.1050532 C20.0287659,60.0323729 19.9953827,59.9354893 20.0005457,59.8403396 C19.9952412,59.7449423 20.028589,59.6478464 20.1013319,59.5750245 L21.16581,58.5483704 C21.1727058,58.5415765 21.1798493,58.535278 21.1870988,58.529121 L27.8595281,52.1018286 C27.995218,51.9660571 28.2151439,51.9660571 28.3508692,52.1018286 L29.4153827,53.1669814 C29.5510372,53.3027174 29.5510372,53.5227754 29.4153827,53.6586176 L24.1656642,58.7154219 L44.8688987,58.7154219 C45.0608167,58.7154219 45.2163456,58.8710796 45.2163456,59.0630421 L45.2163456,60.5694078 C45.2163456,60.7613348 45.0608167,60.9170279 44.8688987,60.9170279 L44.8689695,60.9168864 Z" id="Fill-1"></path>
            </g>
        </g>
    </g>
</svg>