<?xml version="1.0" encoding="UTF-8" standalone="no"?>
<svg width="32px" height="32px" viewBox="0 0 32 32" version="1.1" xmlns="http://www.w3.org/2000/svg" xmlns:xlink="http://www.w3.org/1999/xlink">
    <!-- Generator: sketchtool 39.1 (31720) - http://www.bohemiancoding.com/sketch -->
    <title>631E1D10-29FC-48C3-B1CE-7FAE65420ADA</title>
    <desc>Created with sketchtool.</desc>
    <defs></defs>
    <g id="钱包" stroke="none" stroke-width="1" fill="none" fill-rule="evenodd">
        <g id="支付宝管理" transform="translate(-989.000000, -295.000000)">
            <g id="Group" transform="translate(20.000000, 102.000000)">
                <g id="支付宝账号" transform="translate(400.000000, 179.000000)">
                    <g id="删除" transform="translate(570.000000, 15.000000)">
                        <g>
                            <circle id="Oval" stroke-opacity="0.4" stroke="#DA4104" fill="#FBECE8" cx="15" cy="15" r="15"></circle>
                            <path d="M11.5952659,11.8714123 C11.7716919,11.8714123 11.9143025,12.0143871 11.9143025,12.190449 L11.9143025,12.5682115 L11.9143025,13.7856983 L11.9143025,18.8904331 C11.9143025,19.2426562 12.2001858,19.5285726 12.5524088,19.5285726 L17.9761638,19.5285726 C18.3283868,19.5285726 18.6142867,19.2426562 18.6142867,18.8904331 L18.6142867,13.7856983 L18.6142867,12.5682115 L18.6142867,12.190449 C18.6142867,12.0143705 18.7568807,11.8714123 18.9333233,11.8714123 C19.109799,11.8714123 19.2524096,12.0143871 19.2524096,12.190449 L19.2524096,13.4666947 L19.2524096,13.7856983 L19.2524096,19.209536 C19.2524096,19.738185 18.8238991,20.1666955 18.29525,20.1666955 L12.2333225,20.1666955 C11.7046735,20.1666955 11.276163,19.738185 11.276163,19.209536 L11.276163,14.3711698 L11.276163,13.7856983 L11.276163,13.4666947 L11.276163,12.190449 C11.276163,12.0143871 11.4188398,11.8714123 11.5952659,11.8714123 L11.5952659,11.8714123 Z M16.0618944,17.9332902 L16.0618944,12.5095352 C16.0618944,12.3333906 16.2045547,12.190449 16.3809807,12.190449 C16.5574067,12.190449 16.7000007,12.3333906 16.7000007,12.5095352 L16.7000007,17.9332902 C16.7000007,18.1097658 16.5574067,18.2523765 16.3809807,18.2523765 C16.2045547,18.2523765 16.0618944,18.1097824 16.0618944,17.9332902 L16.0618944,17.9332902 Z M13.8285719,17.9332902 L13.8285719,12.5095352 C13.8285719,12.3333906 13.9711659,12.190449 14.1475919,12.190449 C14.3240841,12.190449 14.4666782,12.3333906 14.4666782,12.5095352 L14.4666782,17.9332902 C14.4666782,18.1097658 14.3240841,18.2523765 14.1475919,18.2523765 C13.9711825,18.2523765 13.8285719,18.1097824 13.8285719,17.9332902 L13.8285719,17.9332902 Z M17.0190208,9.6381229 L13.5095518,9.6381229 C13.3331258,9.6381229 13.190449,9.49551228 13.190449,9.31903662 C13.190449,9.14294165 13.3331258,9 13.5095518,9 L17.0190208,9 C17.195513,9 17.3381236,9.1429582 17.3381236,9.31903662 C17.3381236,9.49551228 17.195513,9.6381229 17.0190208,9.6381229 L17.0190208,9.6381229 Z M20.209536,10.9142859 L10.3190366,10.9142859 C10.1426272,10.9142859 10,10.7716588 10,10.5952659 C10,10.4191047 10.1426272,10.276163 10.3190366,10.276163 L20.209536,10.276163 C20.385962,10.276163 20.5285726,10.4191047 20.5285726,10.5952659 C20.5285726,10.7716588 20.385962,10.9142859 20.209536,10.9142859 L20.209536,10.9142859 Z" id="Fill-1" fill="#DA4104"></path>
                        </g>
                    </g>
                </g>
            </g>
        </g>
    </g>
</svg>