<?xml version="1.0" encoding="UTF-8" standalone="no"?>
<svg width="16px" height="16px" viewBox="0 0 16 16" version="1.1" xmlns="http://www.w3.org/2000/svg" xmlns:xlink="http://www.w3.org/1999/xlink">
    <!-- Generator: sketchtool 39.1 (31720) - http://www.bohemiancoding.com/sketch -->
    <title>70B9FDD9-0A98-4DC2-A28E-1C1A7B3680CB</title>
    <desc>Created with sketchtool.</desc>
    <defs></defs>
    <g id="资料" stroke="none" stroke-width="1" fill="none" fill-rule="evenodd">
        <g id="接包方信息评价展开" transform="translate(-237.000000, -361.000000)" fill="#A3A3AE">
            <g id="资料" transform="translate(156.000000, 82.000000)">
                <g id="个人信息">
                    <g id="定位" transform="translate(81.000000, 279.000000)">
                        <path d="M1.54740686,14.8359715 L14.4080507,14.8359715 C14.4073963,14.7621059 14.3586575,14.713853 14.3278185,14.659824 C13.7696971,13.6809149 13.2103303,12.702575 12.6498871,11.7248885 C12.529676,11.5151599 12.5222459,11.3062535 12.6559873,11.1033549 C12.7765361,10.920546 12.9531483,10.8320084 13.1728844,10.8470809 C13.3703726,10.8606777 13.5257077,10.9575209 13.6235018,11.1277238 C14.3883356,12.4600664 15.1541826,13.7917555 15.9110164,15.128546 C16.1446839,15.5412574 15.8557763,15.9817318 15.3644412,15.981795 C12.8046522,15.9826171 10.2448844,15.9822166 7.68517995,15.9822166 C5.34571821,15.9822166 3.0060876,15.970517 0.666794723,15.9911968 C0.14172876,15.9958767 -0.180170976,15.5171204 0.108504485,15.0321244 C0.863691821,13.7631705 1.58162322,12.4719979 2.31521689,11.1901428 C2.4731905,10.9141165 2.72013509,10.7929043 2.97879472,10.8599399 C3.36129604,10.9593339 3.52777625,11.364878 3.32501108,11.7229913 C2.93353879,12.4147014 2.53634617,13.1031863 2.14189763,13.7931468 C1.94795567,14.1324986 1.75477361,14.4720822 1.54740686,14.8359715" id="Fill-3"></path>
                        <path d="M7.99553562,4.56753412 C7.3608971,4.56768169 6.84687071,5.07683584 6.8457942,5.70644321 C6.84473879,6.3431336 7.3665752,6.85622978 8.00906596,6.85022187 C8.62588918,6.84444585 9.13413193,6.32443531 9.1314934,5.70182661 C9.12885488,5.08029302 8.61525066,4.56736548 7.99553562,4.56753412 M10.2744802,5.70850909 C10.2746491,6.96953676 9.24429551,7.9945697 7.97945119,7.99176601 C6.72549868,7.98896232 5.70274406,6.96327589 5.70274406,5.70865665 C5.7028285,4.44623768 6.73060686,3.42367115 7.99709763,3.42605323 C9.25107124,3.42837207 10.2743958,4.4540585 10.2744802,5.70850909" id="Fill-6"></path>
                        <path d="M13.7053805,5.80419289 C13.6956496,6.68098867 13.4152274,7.48271726 13.0365045,8.25651436 C12.46899,9.41593465 11.7154491,10.4519926 10.896515,11.4430229 C10.1340665,12.3656053 9.31595567,13.2366672 8.44268918,14.0556606 C8.13752823,14.3418266 7.85906913,14.3506382 7.54624591,14.0702482 C5.92653087,12.6184221 4.47088971,11.0266856 3.3596496,9.14378709 C3.17883694,8.83736285 3.01491082,8.5214946 2.87376042,8.19458024 C2.73993456,7.88480422 2.85529077,7.56069354 3.14419842,7.42687536 C3.4339504,7.29274097 3.76688971,7.41041159 3.90789235,7.71656179 C4.57197678,9.15892279 5.54335409,10.3844722 6.60494776,11.5468648 C7.01417203,11.9949702 7.4430058,12.4243352 7.8868686,12.8386066 C7.94177098,12.8898319 7.97632507,12.9314024 8.05431979,12.8529412 C9.5253066,11.3726988 10.9024464,9.81850646 11.9050005,7.9709386 C12.1973066,7.43239842 12.4409583,6.86957365 12.5225836,6.25634572 C12.6456021,5.33184506 12.4596602,4.45241423 12.02061,3.64113623 C11.1841984,2.09609275 9.88604538,1.21499657 8.11426702,1.15291489 C6.09588179,1.08219025 4.30242533,2.38390303 3.66719578,4.30624295 C3.50757573,4.7891942 3.42305858,5.28409802 3.41653615,5.79274625 C3.41185013,6.15629829 3.1730533,6.4130361 2.84406121,6.41221397 C2.51392929,6.41139183 2.27291609,6.14862503 2.27390818,5.79093333 C2.28131715,3.08655389 4.14649921,0.743829249 6.77514301,0.137262714 C8.94993984,-0.36470303 11.2796707,0.537874045 12.5960401,2.39039578 C13.3231325,3.41361581 13.6843567,4.55427457 13.7053805,5.80419289" id="Fill-1"></path>
                    </g>
                </g>
            </g>
        </g>
    </g>
</svg>