<?xml version="1.0" encoding="UTF-8" standalone="no"?>
<svg width="10px" height="14px" viewBox="0 0 10 14" version="1.1" xmlns="http://www.w3.org/2000/svg" xmlns:xlink="http://www.w3.org/1999/xlink">
    <!-- Generator: sketchtool 39.1 (31720) - http://www.bohemiancoding.com/sketch -->
    <title>2C4019ED-969A-448C-81A3-CF75933EB31E</title>
    <desc>Created with sketchtool.</desc>
    <defs></defs>
    <g id="资料" stroke="none" stroke-width="1" fill="none" fill-rule="evenodd">
        <g id="认证发包方" transform="translate(-624.000000, -801.000000)" fill="#323A45">
            <g id="任务信息" transform="translate(176.000000, 453.000000)">
                <g id="测试中" transform="translate(54.000000, 281.000000)">
                    <g id="任务类型" transform="translate(390.000000, 63.000000)">
                        <g id="APP" transform="translate(4.000000, 1.000000)">
                            <path d="M8.26388137,14.275926 C8.26388137,14.275926 8.26388137,14.8392587 7.79443749,14.8392587 L1.97333342,14.8392587 C1.97333342,14.8392587 1.50388954,14.8392587 1.50388954,14.1820372 L1.50388954,5.919825 C1.50388954,5.919825 1.41000076,5.35649235 1.97333342,5.35649235 L7.79443749,5.35649235 C7.79443749,5.35649235 8.26388137,5.26260358 8.26388137,5.919825 L8.26388137,14.275926 Z M4.88388546,16.7170342 C4.41444158,16.7170342 4.13277525,16.3414791 4.13277525,15.965924 C4.13277525,15.4964801 4.50833035,15.2148138 4.88388546,15.2148138 C5.35332933,15.2148138 5.63499566,15.5903689 5.63499566,15.965924 C5.63499566,16.4353678 5.25944056,16.7170342 4.88388546,16.7170342 L4.88388546,16.7170342 Z M3.75722015,4.04204949 L6.10443954,4.04204949 C6.19832831,4.04204949 6.29221709,4.13593827 6.29221709,4.22982705 C6.29221709,4.32371582 6.19832831,4.4176046 6.10443954,4.4176046 L3.75722015,4.4176046 C3.66333137,4.4176046 3.5694426,4.32371582 3.5694426,4.22982705 C3.5694426,4.04204949 3.66333137,4.04204949 3.75722015,4.04204949 L3.75722015,4.04204949 Z M8.35777015,3.00927297 L1.12833444,3.00927297 C-0.0922196416,3.00927297 0.00166913379,4.13593827 0.00166913379,4.13593827 L0.00166913379,15.6842576 C0.00166913379,17.0925893 1.12833444,16.9987005 1.12833444,16.9987005 L8.35777015,16.9987005 C9.672213,16.9987005 9.672213,15.6842576 9.672213,15.6842576 L9.672213,4.13593827 C9.76610178,2.82149541 8.35777015,3.00927297 8.35777015,3.00927297 L8.35777015,3.00927297 Z" id="Fill-5"></path>
                        </g>
                    </g>
                </g>
            </g>
        </g>
    </g>
</svg>