<?xml version="1.0" encoding="UTF-8" standalone="no"?>
<svg width="16px" height="16px" viewBox="0 0 16 16" version="1.1" xmlns="http://www.w3.org/2000/svg" xmlns:xlink="http://www.w3.org/1999/xlink">
    <!-- Generator: sketchtool 39.1 (31720) - http://www.bohemiancoding.com/sketch -->
    <title>182BD327-749C-4C71-BD03-0F6D7157BB44</title>
    <desc>Created with sketchtool.</desc>
    <defs></defs>
    <g id="钱包" stroke="none" stroke-width="1" fill="none" fill-rule="evenodd">
        <g id="钱包－菜单展开" transform="translate(-1260.000000, -172.000000)" fill="#313944">
            <path d="M1266.1,174.9 L1270.1,174.9 C1270.1,174.9 1271.5,173.1 1271.6,172.9 C1271.7,172.7 1271.8,172.3 1271.3,172.2 C1270.8,172.1 1270.4,172 1270.1,172 C1269.8,172.1 1269.4,172.4 1268.2,172.4 C1267.1,172.5 1266.9,172 1266.3,172 C1265.9,172 1265.1,172.1 1264.9,172.2 C1264.7,172.2 1264.3,172.5 1264.7,173 C1265,173.4 1266.1,174.9 1266.1,174.9 L1266.1,174.9 Z M1270.6,181.9 L1270.6,182.9 L1268.8,182.9 L1268.8,183.6 L1270.6,183.6 L1270.6,184.5 L1268.8,184.5 L1268.8,185.8 L1267.2,185.8 L1267.2,184.5 L1265.4,184.5 L1265.4,183.6 L1267.2,183.6 L1267.2,182.9 L1265.4,182.9 L1265.4,181.9 L1266.9,181.9 L1265,178.9 L1266.7,178.9 L1268.2,181.8 L1269.7,178.9 L1271.2,178.9 L1269.2,181.9 L1270.6,181.9 Z M1275.8,187.1 C1275.5,186.7 1275.2,186.2 1274.9,185.5 C1274.7,184.9 1274.5,184.2 1274.5,183.7 L1274.5,180.9 C1274.5,179.3 1273.8,177.9 1272.6,176.9 C1272,176.4 1271.2,175.9 1270.5,175.7 C1270.1,175.6 1269.7,175.5 1269.4,175.4 L1266.6,175.4 C1266.2,175.4 1265.9,175.5 1265.5,175.7 C1264.7,175.9 1264,176.4 1263.3,176.9 C1262.7,177.4 1262.2,178 1261.9,178.7 C1261.6,179.4 1261.4,180.1 1261.4,180.9 L1261.4,183.7 C1261.4,184.3 1261.2,184.9 1261,185.5 C1260.8,186.1 1260.5,186.7 1260.1,187 C1260.1,187.1 1260,187.3 1260,187.4 C1260,187.7 1260.3,188 1260.7,188 L1275.4,188 C1275.5,188 1275.7,188 1275.8,187.9 C1276,187.7 1276.1,187.3 1275.8,187.1 L1275.8,187.1 Z" id="Fill-1"></path>
        </g>
    </g>
</svg>