<?xml version="1.0" encoding="UTF-8" standalone="no"?>
<svg width="14px" height="14px" viewBox="0 0 14 14" version="1.1" xmlns="http://www.w3.org/2000/svg" xmlns:xlink="http://www.w3.org/1999/xlink">
    <!-- Generator: sketchtool 39.1 (31720) - http://www.bohemiancoding.com/sketch -->
    <title>7A187803-D7D8-43CA-A572-9DA99EFBD584</title>
    <desc>Created with sketchtool.</desc>
    <defs></defs>
    <g id="钱包" stroke="none" stroke-width="1" fill="none" fill-rule="evenodd">
        <g id="提现" transform="translate(-600.000000, -663.000000)" fill="#0096FF">
            <g id="Group-4" transform="translate(20.000000, 102.000000)">
                <g id="提现至" transform="translate(400.000000, 468.000000)">
                    <g id="支付宝账号" transform="translate(0.000000, 70.000000)">
                        <path d="M186.438215,34.1475754 L187.50577,34.1475754 L187.50577,33.080079 L186.438215,33.080079 L186.438215,34.1475754 Z M186.495989,32.2676087 C186.49247,32.1422854 186.490691,32.0489088 186.490691,31.9867163 C186.490691,31.6186843 186.543127,31.3013485 186.64714,31.0338096 C186.723565,30.8320606 186.847149,30.6293536 187.016892,30.4240072 C187.141336,30.274675 187.366214,30.0560338 187.690647,29.7697844 C188.015158,29.4835937 188.226663,29.2551182 188.323598,29.0853746 C188.420513,28.9155723 188.469313,28.7297966 188.469313,28.5280476 C188.469313,28.1635934 188.327117,27.8426993 188.042686,27.567164 C187.758255,27.2916092 187.408933,27.1529129 186.995581,27.1529129 C186.596482,27.1529129 186.263095,27.2782557 185.995556,27.5280225 C185.728017,27.7777697 185.552936,28.1679924 185.469355,28.6995509 L184.505754,28.5849612 C184.592893,27.872945 184.850676,27.3280331 185.279141,26.9493456 C185.707547,26.5707167 186.274689,26.3813632 186.979569,26.3813632 C187.726249,26.3813632 188.321819,26.5848718 188.766237,26.991107 C189.210695,27.3973422 189.432953,27.8889379 189.432953,28.4649167 C189.432953,28.7982259 189.35469,29.105786 189.198221,29.3866784 C189.041792,29.6675707 188.73605,30.0097756 188.281817,30.4124916 C187.976935,30.6844881 187.776926,30.8835976 187.683589,31.0124597 C187.590193,31.1413804 187.520023,31.2880732 187.474664,31.4551774 C187.429364,31.6222817 187.403576,31.8924404 187.396479,32.2676282 L186.495989,32.2676282 L186.495989,32.2676087 L186.495989,32.2676087 Z M187,23.665758 C183.507547,23.665758 180.666618,26.5066865 180.666618,29.9991397 C180.666618,33.4906936 183.507547,36.3316221 187,36.3316221 C190.492453,36.3316221 193.333382,33.4906936 193.333382,29.9991397 C193.333382,26.5075663 190.492434,23.665758 187,23.665758 L187,23.665758 Z M187,36.9991593 C183.139593,36.9991593 180,33.8596251 180,30 C180,26.1395929 183.140473,23 187,23 C190.859606,23 194,26.1404922 194,30 C194,33.8596251 190.860485,36.9991593 187,36.9991593 L187,36.9991593 Z" id="Fill-1"></path>
                    </g>
                </g>
            </g>
        </g>
    </g>
</svg>