<?xml version="1.0" encoding="UTF-8" standalone="no"?>
<svg width="17px" height="14px" viewBox="0 0 17 14" version="1.1" xmlns="http://www.w3.org/2000/svg" xmlns:xlink="http://www.w3.org/1999/xlink">
    <!-- Generator: sketchtool 39.1 (31720) - http://www.bohemiancoding.com/sketch -->
    <title>337C63C7-A3B1-40EA-802A-707C8EBEC8BB</title>
    <desc>Created with sketchtool.</desc>
    <defs></defs>
    <g id="钱包" stroke="none" stroke-width="1" fill="none" fill-rule="evenodd">
        <g id="钱包－菜单展开" transform="translate(-1260.000000, -213.000000)" fill="#313944">
            <path d="M1272.4,216 L1276.1,216 L1276.1,217.3 L1272.4,217.3 L1272.4,216.1 L1272.4,216 Z M1271.5,220.5 L1276.1,220.5 L1276.1,219.4 L1271.5,219.4 L1271.5,220.5 Z M1273.1,223.8 L1276.1,223.8 L1276.1,222.7 L1273.1,222.7 L1273.1,223.8 Z M1273.9,227 L1276.1,227 L1276.1,225.9 L1273.9,225.9 L1273.9,227 Z M1273.2,227 C1273,224.7 1271.8,222.7 1270,221.6 C1269.1,222.3 1267.9,222.8 1266.6,222.8 C1265.3,222.8 1264.2,222.3 1263.2,221.6 C1261.4,222.7 1260.2,224.7 1260,227 L1273.2,227 Z M1266.7,213 C1264.3,213 1262.3,215 1262.3,217.4 C1262.3,219.8 1264.3,221.8 1266.7,221.8 C1269.1,221.8 1271.1,219.8 1271.1,217.4 C1271,214.9 1269.1,213 1266.7,213 L1266.7,213 Z" id="Page-1"></path>
        </g>
    </g>
</svg>