<?xml version="1.0" encoding="UTF-8" standalone="no"?>
<svg width="17px" height="11px" viewBox="0 0 17 11" version="1.1" xmlns="http://www.w3.org/2000/svg" xmlns:xlink="http://www.w3.org/1999/xlink">
    <!-- Generator: sketchtool 39.1 (31720) - http://www.bohemiancoding.com/sketch -->
    <title>3B4318F0-FCAD-4367-9644-734C5411948E</title>
    <desc>Created with sketchtool.</desc>
    <defs></defs>
    <g id="资料" stroke="none" stroke-width="1" fill="none" fill-rule="evenodd">
        <g id="认证发包方" transform="translate(-1141.000000, -567.000000)" fill="#C9C9C9">
            <g id="任务信息" transform="translate(176.000000, 453.000000)">
                <g id="招募中" transform="translate(54.000000, 68.000000)">
                    <path d="M919.476174,53.0022521 C918.542428,53.0022521 917.775881,52.2163888 917.775881,51.2738476 C917.775881,50.3318062 918.542428,49.5680827 919.476174,49.5680827 C920.408944,49.5680827 921.175492,50.3318062 921.175492,51.2738476 C921.175492,52.2163888 920.408944,53.0022521 919.476174,53.0022521 M919.476174,47.7505693 C917.487739,47.7505693 915.884177,49.3668004 915.884177,51.3864957 C915.884177,53.3834266 917.487639,55.0219225 919.476174,55.0219225 C921.463634,55.0219225 923.09121,53.3834266 923.09121,51.3864957 C923.09121,49.3890651 921.463634,47.7505693 919.476174,47.7505693 M919.499313,56.9517842 C914.805873,56.9517842 911,51.6556968 911,51.4758046 C911,51.2738476 914.805873,46 919.499313,46 C924.216667,46 928.071243,51.520609 927.999001,51.4758046 C927.949923,51.4309003 924.216767,56.9517842 919.499313,56.9517842" id="Page-1"></path>
                </g>
            </g>
        </g>
    </g>
</svg>