<?xml version="1.0" encoding="UTF-8" standalone="no"?>
<svg width="120px" height="30px" viewBox="0 0 120 30" version="1.1" xmlns="http://www.w3.org/2000/svg" xmlns:xlink="http://www.w3.org/1999/xlink">
    <!-- Generator: sketchtool 39.1 (31720) - http://www.bohemiancoding.com/sketch -->
    <title>62B1813F-AC07-42A9-B87E-249DE73A4260</title>
    <desc>Created with sketchtool.</desc>
    <defs></defs>
    <g id="钱包" stroke="none" stroke-width="1" fill="none" fill-rule="evenodd">
        <g id="支付宝管理" transform="translate(-40.000000, -25.000000)" fill="#FFFFFF">
            <g id="header">
                <g id="LOGO" transform="translate(40.000000, 25.000000)">
                    <g>
                        <path d="M32.25,25.5 C33.49275,25.5 34.5,26.50725 34.5,27.75 C34.5,28.99275 33.49275,30 32.25,30 C31.00725,30 30,28.99275 30,27.75 C30,26.50725 31.00725,25.5 32.25,25.5" id="Fill-1"></path>
                        <path d="M14.9628,28.5 C7.52505,28.5 1.5003,22.45875 1.5003,15 C1.5003,7.54125 7.52505,1.5 14.9628,1.5 C22.40055,1.5 28.5003,7.54125 28.5003,15 C28.5003,22.45875 22.40055,28.5 14.9628,28.5 M14.96205,0 C6.7173,0 0.0003,6.8115 0.0003,15 C0.0003,23.1885 6.7173,30 14.96205,30 C23.20605,30 30.0003,23.265 30.0003,15 C30.0003,6.735 23.28255,0 14.96205,0" id="Fill-3"></path>
                        <path d="M39.65625,4.3125 L39.65625,8.34375 L40.21875,8.34375 C40.7745,8.34375 41.292,8.19225 41.5695,7.78875 C41.91675,7.3845 42.0555,6.9 42.0555,6.2535 C42.0555,5.60775 41.91675,5.12325 41.5695,4.8 C41.22225,4.47675 40.7745,4.3125 40.21875,4.3125 L39.65625,4.3125 Z M39,9 L39,3.75 L40.31925,3.75 C41.01375,3.75 41.5695,3.99225 42.0555,4.47675 C42.5415,4.96125 42.75,5.52675 42.75,6.3345 C42.75,7.14225 42.5415,7.78875 42.0555,8.27325 C41.5695,8.75775 41.01375,9 40.31925,9 L39,9 Z" id="Fill-5"></path>
                        <polygon id="Fill-7" points="43.5 9 43.5 3.75 47.25 3.75 47.25 4.3155 44.25 4.3155 44.25 6 46.875 6 46.875 6.5625 44.25 6.5625 44.25 8.3535 47.25 8.3535 47.25 9"></polygon>
                        <path d="M51.75,8.69115 C51.35925,8.9229 50.8905,9.00015 50.34375,9.00015 C49.64025,9.00015 49.0155,8.7684 48.62475,8.3049 C48.156,7.84215 48,7.22415 48,6.4524 C48,5.6799 48.23475,4.9854 48.7035,4.5219 C49.1715,4.05915 49.797,3.75015 50.5785,3.75015 C51.04725,3.75015 51.43725,3.8274 51.75,3.9819 L51.75,4.6914 C51.35925,4.45965 50.9685,4.3674 50.5785,4.3674 C50.031,4.3674 49.56225,4.5219 49.1715,4.90815 C48.7815,5.2944 48.65625,5.77365 48.65625,6.4689 C48.65625,7.08615 48.7815,7.53315 49.0935,7.9194 C49.40625,8.3049 49.875,8.4594 50.42175,8.4594 C50.8905,8.4594 51.35925,8.2944 51.75,8.06265 L51.75,8.69115" id="Fill-9"></path>
                        <path d="M60,9 L57.5625,4.5 C57.5625,4.581 57.55575,9 57.55575,9 L57,9 L57,3.75 L57.76425,3.75 C57.76425,3.75 60.12525,8.11125 60.19425,8.19225 L60.19425,3.75 L60.75,3.75 L60.75,9 L60,9 Z" id="Fill-11"></path>
                        <polygon id="Fill-13" points="65.25 4.4064 63.75 4.4064 63.75 9.00015 63 9.00015 63 4.4064 61.5 4.4064 61.5 3.75015 65.25 3.75015"></polygon>
                        <path d="M66.65625,4.3125 L66.65625,6.1875 L67.40625,6.1875 C67.72575,6.1875 68.4735,6.0045 68.4735,5.2035 C68.4735,4.53525 68.2455,4.3125 67.40625,4.3125 L66.65625,4.3125 Z M69.75,9 L69,9 L67.875,7.125 C67.809,7.01475 67.68525,6.84675 67.40625,6.84375 L66.65625,6.84375 L66.65625,9 L66,9 L66,3.75 L67.596,3.75 C68.36475,3.75 69.19125,4.032 69.19125,5.2035 C69.19125,6.0045 68.874,6.414 68.15625,6.65625 C68.15625,6.65625 68.27625,6.64425 68.4375,6.84375 C68.57625,7.0635 69.75,9 69.75,9 L69.75,9 Z" id="Fill-15"></path>
                        <path d="M73.03125,6.9375 L72.375,4.5 C72.303,4.81875 71.71875,6.9375 71.71875,6.9375 L73.03125,6.9375 Z M74.25,9 L73.59375,9 L73.21875,7.5 L71.53125,7.5 L71.15625,9 L70.5,9 L72.09375,3.75 L72.65625,3.75 L74.25,9 Z" id="Fill-17"></path>
                        <polygon id="Fill-19" points="79.5 4.3125 77.90625 4.3125 77.90625 9 77.25 9 77.25 4.3125 75.75 4.3245 75.75 3.75 79.5 3.75"></polygon>
                        <polygon id="Fill-21" points="93 9 92.34375 9 92.34375 6.75 89.90625 6.75 89.90625 9 89.25 9 89.25 3.84375 89.90625 3.84375 89.90625 6.09375 92.34375 6.09375 92.34375 3.75 93 3.75"></polygon>
                        <path d="M98.8125,6.375 C98.8125,7.002 98.91525,7.51125 99.1575,7.90275 C99.399,8.295 99.70125,8.4375 100.125,8.4375 C100.54875,8.4375 100.851,8.295 101.0925,7.90275 C101.33475,7.51125 101.4375,7.002 101.4375,6.375 C101.4375,5.748 101.33475,5.23875 101.0925,4.92525 C100.851,4.53375 100.54875,4.377 100.125,4.377 C99.702,4.377 99.399,4.53375 99.1575,4.92525 C98.91525,5.3175 98.8125,5.82675 98.8125,6.375 M98.25,6.3735 C98.256,5.4675 98.45025,4.92075 98.7945,4.455 C99.14775,3.978 99.5205,3.75 100.125,3.75 C100.6695,3.75 101.15325,3.98475 101.51625,4.455 C101.87925,4.92525 102,5.58675 102,6.3705 C102,7.23225 101.8185,7.82475 101.51625,8.295 C101.214,8.76525 100.7295,9 100.125,9 C99.5805,9 99.138,8.75625 98.7945,8.295 C98.37375,7.7265 98.24475,7.15725 98.25,6.3735" id="Fill-23"></path>
                        <polygon id="Fill-25" points="106.5 9 102.75 9 102.75 3.75 103.5 3.75 103.5 8.34375 106.5 8.3415"></polygon>
                        <path d="M115.5,8.5368 C115.014,8.8458 114.528,9.0003 113.97225,9.0003 C113.3475,9.0003 112.79175,8.76855 112.37475,8.30505 C111.9585,7.8423 111.75,7.2243 111.75,6.45255 C111.75,5.68005 111.9585,5.0628 112.4445,4.52205 C112.86075,4.05855 113.48625,3.7503 114.111,3.7503 C114.597,3.7503 114.96525,3.87705 115.3125,4.03155 L115.3125,4.6878 C114.96525,4.45605 114.597,4.2903 114.042,4.2903 C113.55525,4.2903 113.139,4.4448 112.79175,4.83105 C112.4445,5.2173 112.30575,5.68005 112.30575,6.29805 C112.30575,6.9153 112.356,7.28505 112.6875,7.78155 C112.965,8.16705 113.42025,8.4378 113.90625,8.4378 C114.2535,8.4378 114.56625,8.31105 114.84375,8.15655 L114.84375,6.65655 L113.8125,6.65655 L113.8125,6.09405 L115.5,6.09405 L115.5,8.5368 Z" id="Fill-27"></path>
                        <path d="M118.497075,7.032375 L118.497075,8.997375 L117.750075,9.000375 L117.750075,7.031625 L116.250075,3.750375 L117.000075,3.750375 C117.000075,3.750375 118.045575,5.947125 118.120575,6.189375 L119.250075,3.750375 L120.000075,3.750375 L118.497075,7.032375 Z" id="Fill-29"></path>
                        <path d="M47.51085,18.755625 C49.4676,19.973625 51.13035,21.090375 52.49985,22.105125 L51.7176,23.120625 C50.3481,22.003875 48.6846,20.785875 46.8261,19.567875 L47.51085,18.755625 Z M45.4686,16.968375 C45.27285,16.562625 44.9676,16.015125 44.6736,15.507375 L45.65235,14.999625 C46.0431,15.609375 46.3371,16.116375 46.63035,16.624125 L46.0311,16.968375 L51.93735,16.968375 L51.93735,19.687125 L50.81235,19.687125 L50.81235,17.999625 L40.68735,17.999625 L40.68735,19.687125 L39.4686,19.687125 L39.4686,16.968375 L45.4686,16.968375 Z M39.48885,27.383625 L45.18735,27.374625 L45.18735,23.624625 L40.9686,23.624625 L40.9686,22.499625 L50.64135,22.511625 L50.64135,23.627625 L46.31235,23.624625 L46.31235,27.374625 L52.01085,27.383625 L52.01085,28.499625 L39.48885,28.499625 L39.48885,27.383625 Z M43.98885,18.755625 L44.77185,19.567875 C43.01085,20.988375 41.3481,22.207125 39.78285,23.120625 C39.48885,22.714125 39.1956,22.409625 38.99985,22.207125 C40.76085,21.191625 42.4236,20.176875 43.98885,18.755625 L43.98885,18.755625 Z" id="Fill-32"></path>
                        <path d="M72.5625,18.84375 C73.23525,20.29425 74.091,22.10325 75,23.934 L73.875,24.5625 C72.99675,22.60575 72.3,21.10575 71.53125,19.40625 L72.5625,18.84375 Z M67.8645,15.00075 C68.73225,16.4895 69.35625,17.7465 70.03125,18.9375 C69.64575,19.13625 69.3885,19.29675 69,19.5 C68.325,18.11025 67.6125,16.75875 66.9375,15.46875 L67.8645,15.00075 Z M66,18 L66,26.15625 C66,27.0495 66.35625,27.375 67.03125,27.375 L70.03125,27.375 C70.803,27.375 71.15025,27.132 71.34375,26.4375 C71.50875,25.67325 71.562,25.37325 71.71875,24.5625 C72.17925,24.64425 72.309,24.6675 72.75,24.75 C72.597,25.74375 72.47175,26.40975 72.375,26.90625 C72.0855,27.8985 71.376,28.5 70.21875,28.5 L66.84375,28.5 C65.5905,28.5 64.875,27.82725 64.875,26.4375 L64.875,18 L66,18 Z M63,19.5 L64.03125,19.875 C63.64575,21.86025 63.1095,23.52 62.53125,25.40625 L61.50075,25.026 C62.07975,23.2395 62.6145,21.48525 63,19.5 L63,19.5 Z" id="Fill-34"></path>
                        <path d="M90.460275,17.152875 L91.031025,16.499625 C91.910025,17.241375 92.744025,17.933625 93.468525,18.562125 L92.718525,19.312125 C92.051775,18.657375 91.394025,18.031125 90.460275,17.152875 L90.460275,17.152875 Z M89.624775,20.437125 L90.281025,19.780875 C91.283775,20.602875 91.949775,21.176625 92.624775,21.749625 L91.968525,22.687125 C91.345275,22.116375 90.648525,21.445875 89.624775,20.437125 L89.624775,20.437125 Z M88.968525,23.999625 L94.218525,23.530875 L94.218525,14.999625 L95.249775,14.999625 L95.249775,23.437125 L97.499775,23.250375 L97.499775,24.093375 L95.258775,24.294375 L95.249775,28.499625 L94.220775,28.499625 L94.218525,24.468375 L88.968525,24.937125 L88.968525,23.999625 Z M83.999775,24.782625 C85.060275,23.413125 85.861275,21.823125 86.343525,20.062125 L84.187275,20.062125 L84.187275,19.124625 L86.437275,19.124625 L86.437275,17.062125 C85.685775,17.142375 84.941025,17.187375 84.187275,17.249625 C84.189525,16.817625 84.185025,16.504125 84.187275,16.218375 C86.126775,16.041375 87.787275,15.908625 89.624775,15.655875 L89.624775,16.687125 C88.853775,16.785375 88.242525,16.859625 87.471525,16.957125 L87.468525,19.124625 L89.624775,19.124625 L89.624775,20.062125 L87.468525,20.062125 L87.471525,21.652875 L88.031025,20.999625 C88.706025,21.586875 89.327775,22.100625 89.906025,22.687125 L89.156025,23.530875 C88.577775,22.846125 87.953025,22.239375 87.471525,21.750375 L87.471525,28.499625 L86.437275,28.499625 L86.437275,22.312125 C85.859025,23.681625 85.240275,24.896625 84.468525,25.874625 C84.241275,25.370625 84.215775,25.314375 83.999775,24.782625 L83.999775,24.782625 Z" id="Fill-36"></path>
                        <path d="M117.75,21.1875 L113.4375,21.1875 C113.823,22.644 114.5355,23.77875 115.5,24.75 C116.5605,23.682 117.26775,22.644 117.75,21.1875 L117.75,21.1875 Z M111.46875,20.25 L114.9375,20.25 L114.9375,18.1875 L111.375,18.1875 L111.375,17.25 L114.9375,17.25 L114.9375,15 L116.0625,15 L116.0625,17.25 L120,17.25 L120,18.1875 L116.0625,18.1875 L116.0625,20.25 L118.96875,20.25 L118.96875,21 C118.29375,22.845 117.3135,24.432 116.15625,25.5 C117.21675,26.277 118.554,26.89275 120,27.28125 C119.6115,27.735 119.385,27.99975 119.15625,28.3125 C117.71025,27.72975 116.5605,26.93325 115.5,26.15625 C114.34275,27.03 112.731,27.8205 111.18825,28.5 C110.9955,28.209 110.82075,27.951 110.53125,27.5625 C112.17075,27.07725 113.59275,26.37375 114.75,25.5 C113.7855,24.432 112.98225,23.0295 112.5,21.28125 L111.46875,21.09375 L111.46875,20.25 Z M106.50075,22.0905 C107.17575,21.89625 107.8905,21.663 108.46875,21.46875 L108.46875,18.5625 L106.5,18.5625 L106.5,17.625 L108.46875,17.625 L108.46875,15 L109.5,15 L109.5,17.625 L111,17.625 L111,18.5625 L109.5,18.5625 L109.5,21.1875 C110.14425,20.985 110.4675,20.89725 111,20.71875 L111,21.75 C110.30325,21.9675 110.1735,22.01475 109.5,22.21875 L109.5,26.90625 C109.5,27.8775 108.9615,28.5 108.09375,28.5 L106.5,28.5 C106.4985,28.00125 106.4985,27.86625 106.5,27.46875 C107.0685,27.47775 107.7135,27.46875 107.90625,27.46875 C108.29175,27.46875 108.46875,27.201 108.46875,26.8125 L108.46875,22.5 C107.8905,22.69425 107.07825,22.962 106.5,23.15625 L106.50075,22.0905 Z" id="Fill-38"></path>
                        <polygon id="Fill-40" points="52.5 9 52.5 3.75 56.25 3.75 56.25 4.3155 53.25 4.3155 53.25 6 55.875 6 55.875 6.5625 53.25 6.5625 53.25 8.3535 56.25 8.3535 56.25 9"></polygon>
                        <polygon id="Fill-42" points="80.25 9 80.25 3.75 84 3.75 84 4.3155 81 4.3155 81 6 83.625 6 83.625 6.5625 81 6.5625 81 8.3535 84 8.3535 84 9"></polygon>
                        <path d="M88.5,8.69115 C88.10925,8.9229 87.6405,9.00015 87.09375,9.00015 C86.39025,9.00015 85.7655,8.7684 85.37475,8.3049 C84.906,7.84215 84.75,7.22415 84.75,6.4524 C84.75,5.6799 84.98475,4.9854 85.4535,4.5219 C85.9215,4.05915 86.547,3.75015 87.3285,3.75015 C87.79725,3.75015 88.18725,3.8274 88.5,3.9819 L88.5,4.6914 C88.10925,4.45965 87.7185,4.3674 87.3285,4.3674 C86.781,4.3674 86.31225,4.5219 85.9215,4.90815 C85.5315,5.2944 85.40625,5.77365 85.40625,6.4689 C85.40625,7.08615 85.5315,7.53315 85.8435,7.9194 C86.15625,8.3049 86.625,8.4594 87.17175,8.4594 C87.6405,8.4594 88.10925,8.38215 88.5,8.1504 L88.5,8.69115" id="Fill-44"></path>
                        <path d="M96.75,9 L94.3125,4.5 C94.3125,4.581 94.30575,9 94.30575,9 L93.75,9 L93.75,3.75 L94.51425,3.75 C94.51425,3.75 96.87525,8.11125 96.94425,8.19225 L96.94425,3.75 L97.5,3.75 L97.5,9 L96.75,9 Z" id="Fill-46"></path>
                        <path d="M107.8125,6.375 C107.8125,7.002 107.91525,7.51125 108.1575,7.90275 C108.399,8.295 108.70125,8.4375 109.125,8.4375 C109.54875,8.4375 109.851,8.295 110.0925,7.90275 C110.33475,7.51125 110.4375,7.002 110.4375,6.375 C110.4375,5.748 110.33475,5.23875 110.0925,4.92525 C109.851,4.53375 109.54875,4.377 109.125,4.377 C108.702,4.377 108.399,4.53375 108.1575,4.92525 C107.91525,5.3175 107.8125,5.82675 107.8125,6.375 M107.25,6.3735 C107.25,5.51175 107.4315,4.92525 107.7945,4.455 C108.1575,3.98475 108.5205,3.75 109.125,3.75 C109.6695,3.75 110.15325,3.98475 110.51625,4.455 C110.87925,4.92525 111,5.58675 111,6.3705 C111,7.23225 110.8185,7.82475 110.51625,8.295 C110.214,8.76525 109.7295,9 109.125,9 C108.5805,9 108.09675,8.76525 107.7945,8.295 C107.4315,7.90275 107.25,7.15725 107.25,6.3735" id="Fill-48"></path>
                    </g>
                </g>
            </g>
        </g>
    </g>
</svg>