<?xml version="1.0" encoding="UTF-8"?>
<svg width="12px" height="12px" viewBox="0 0 12 12" version="1.1" xmlns="http://www.w3.org/2000/svg" xmlns:xlink="http://www.w3.org/1999/xlink">
    <!-- Generator: Sketch 45.2 (43514) - http://www.bohemiancoding.com/sketch -->
    <title>保存</title>
    <desc>Created with Sketch.</desc>
    <defs></defs>
    <g id="常规发布任务" stroke="none" stroke-width="1" fill="none" fill-rule="evenodd">
        <g id="发布任务_前端" transform="translate(-816.000000, -96.000000)" fill="#FFFFFF">
            <g id="Group">
                <g id="步骤" transform="translate(173.000000, 60.000000)">
                    <g id="保存" transform="translate(629.000000, 28.000000)">
                        <path d="M14,8 L14,20 L16.0734392,20 L23.9265608,20 L26,20 L26,12.0164104 L24.0205702,8 L14,8 Z M22.588536,13.1435613 L22.588536,9.10010069 L23.3344761,9.10010069 L24.8981114,12.2723652 L24.8981114,18.8998993 L23.9265608,18.8998993 L23.9265608,14.8564988 L16.0734392,14.8564988 L16.0734392,18.8998993 L15.1018886,18.8998993 L15.1018886,9.10010069 L16.4869482,9.10010069 L16.4869482,13.1435613 L22.588536,13.1435613 Z M20.2413689,12.0775438 L21.4748587,12.0775438 L21.4748587,9.10010069 L20.2413689,9.10010069 L20.2413689,12.0775438 Z M17.1741249,18.8998993 L22.8246722,18.8998993 L22.8246722,15.9565995 L17.1741249,15.9565995 L17.1741249,18.8998993 Z"></path>
                    </g>
                </g>
            </g>
        </g>
    </g>
</svg>