<?xml version="1.0" encoding="UTF-8"?>
<svg width="14px" height="14px" viewBox="0 0 14 14" version="1.1" xmlns="http://www.w3.org/2000/svg" xmlns:xlink="http://www.w3.org/1999/xlink">
    <!-- Generator: Sketch 45.2 (43514) - http://www.bohemiancoding.com/sketch -->
    <title>删除</title>
    <desc>Created with Sketch.</desc>
    <defs></defs>
    <g id="常规发布任务" stroke="none" stroke-width="1" fill="none" fill-rule="evenodd">
        <g id="前端_填写任务详情" transform="translate(-578.000000, -831.000000)" fill="#3CC8B4">
            <g id="Group">
                <g id="其他说明" transform="translate(173.000000, 493.000000)">
                    <g id="上传设计稿" transform="translate(270.000000, 170.000000)">
                        <path d="M143.814974,179.407594 L143.814974,172.666845 C143.814974,172.380217 143.583099,172.148235 143.296364,172.148235 C143.009735,172.148235 142.777861,172.380217 142.777861,172.666845 L142.777861,179.407594 C142.777861,179.694222 143.009735,179.926097 143.296364,179.926097 C143.583099,179.926097 143.814974,179.694222 143.814974,179.407594 M147.963209,169.555615 L135.518503,169.555615 C135.23241,169.555615 135,169.787597 135,170.074225 C135,170.360853 135.23241,170.592835 135.518503,170.592835 L147.963209,170.592835 C148.24973,170.592835 148.481712,170.360853 148.481712,170.074225 C148.481712,169.787597 148.24973,169.555615 147.963209,169.555615 M146.407594,171.629733 C146.120858,171.629733 145.889091,171.861607 145.889091,172.148235 L145.889091,179.926097 C145.889091,180.498818 145.4247,180.963209 144.852086,180.963209 L138.629733,180.963209 C138.057119,180.963209 137.592728,180.498818 137.592728,179.926097 L137.592728,172.148235 C137.592728,171.861607 137.360853,171.629733 137.074225,171.629733 C136.788132,171.629733 136.555722,171.861607 136.555722,172.148235 L136.555722,174.222353 L136.555722,180.963209 C136.555722,181.535716 137.020114,182 137.592728,182 L145.889091,182 C146.461705,182 146.926097,181.535716 146.926097,180.963209 L146.926097,174.222353 L146.926097,172.148235 C146.926097,171.861714 146.694115,171.629733 146.407594,171.629733 M139.666738,169.037112 L143.815081,169.037112 C144.101709,169.037112 144.333583,168.805238 144.333583,168.51861 C144.333583,168.231981 144.101709,168 143.815081,168 L139.666738,168 C139.38011,168 139.148235,168.231981 139.148235,168.51861 C139.148235,168.805238 139.38011,169.037112 139.666738,169.037112 M140.703851,179.407594 L140.703851,172.666845 C140.703851,172.380217 140.471976,172.148235 140.185348,172.148235 C139.898612,172.148235 139.666738,172.380217 139.666738,172.666845 L139.666738,179.407594 C139.666738,179.694222 139.898612,179.926097 140.185348,179.926097 C140.471976,179.926097 140.703851,179.694222 140.703851,179.407594" id="删除"></path>
                    </g>
                </g>
            </g>
        </g>
    </g>
</svg>