<?xml version="1.0" encoding="UTF-8"?>
<svg width="23px" height="20px" viewBox="0 0 23 20" version="1.1" xmlns="http://www.w3.org/2000/svg" xmlns:xlink="http://www.w3.org/1999/xlink">
    <!-- Generator: Sketch 45.2 (43514) - http://www.bohemiancoding.com/sketch -->
    <title>弹窗</title>
    <desc>Created with Sketch.</desc>
    <defs>
        <rect id="path-1" x="0" y="0" width="23" height="20"></rect>
        <rect id="path-2" x="5" y="7" width="13" height="10"></rect>
        <rect id="path-3" x="5" y="13" width="13" height="4"></rect>
        <rect id="path-4" x="11" y="13" width="7" height="4"></rect>
        <rect id="path-5" x="0" y="0" width="23" height="5"></rect>
    </defs>
    <g id="常规发布任务" stroke="none" stroke-width="1" fill="none" fill-rule="evenodd">
        <g id="前端_选择工程师级别" transform="translate(-200.000000, -970.000000)">
            <g id="页面类型" transform="translate(173.000000, 629.000000)">
                <g id="Group-15" transform="translate(1.000000, 311.000000)">
                    <g id="弹窗" transform="translate(26.000000, 30.000000)">
                        <g id="Rectangle-7">
                            <use fill="#FFFFFF" fill-rule="evenodd" xlink:href="#path-1"></use>
                            <rect stroke="#272536" stroke-width="1" x="0.5" y="0.5" width="22" height="19"></rect>
                        </g>
                        <g id="Rectangle-14">
                            <use fill="#FFFFFF" fill-rule="evenodd" xlink:href="#path-2"></use>
                            <rect stroke="#272536" stroke-width="1" x="5.5" y="7.5" width="12" height="9"></rect>
                        </g>
                        <g id="Rectangle-14">
                            <use fill="#FFFFFF" fill-rule="evenodd" xlink:href="#path-3"></use>
                            <rect stroke="#272536" stroke-width="1" x="5.5" y="13.5" width="12" height="3"></rect>
                        </g>
                        <g id="Rectangle-14">
                            <use fill="#FFFFFF" fill-rule="evenodd" xlink:href="#path-4"></use>
                            <rect stroke="#272536" stroke-width="1" x="11.5" y="13.5" width="6" height="3"></rect>
                        </g>
                        <g id="Rectangle-7">
                            <use fill="#FFFFFF" fill-rule="evenodd" xlink:href="#path-5"></use>
                            <rect stroke="#272536" stroke-width="1" x="0.5" y="0.5" width="22" height="4"></rect>
                        </g>
                        <circle id="Oval-4" fill="#272536" cx="3.5" cy="2.5" r="1"></circle>
                        <circle id="Oval-4" fill="#272536" cx="3.5" cy="2.5" r="1"></circle>
                        <circle id="Oval-4" fill="#272536" cx="5.5" cy="2.5" r="1"></circle>
                        <circle id="Oval-4" fill="#272536" cx="7.5" cy="2.5" r="1"></circle>
                        <path d="M8.70457253,10.8687575 L8.23968911,9.6917908 L7.77296092,10.8687575 L8.70457253,10.8687575 Z M9.11411268,11.9129005 L8.81710383,11.1565425 L7.66042962,11.1565425 L7.35973122,11.9129005 L7,11.9129005 L8.0828832,9.18263277 L8.46659649,9.18263277 L9.53287671,11.9129005 L9.11411268,11.9129005 Z M9.93872731,11.9129005 L9.93872731,9 L10.3021481,9 L10.3021481,11.9129005 L9.93872731,11.9129005 Z M12.4992757,11.8483333 C12.2557641,11.9221247 12.0473065,11.9590198 11.8738968,11.9590198 C11.5787312,11.9590198 11.3379904,11.8609403 11.1516672,11.6647782 C10.9653439,11.4686161 10.8721837,11.214347 10.8721837,10.9019635 C10.8721837,10.598189 10.9542754,10.3491468 11.1184612,10.1548294 C11.2826471,9.96051212 11.4926419,9.86335492 11.748452,9.86335492 C11.9907338,9.86335492 12.1779766,9.94944358 12.3101862,10.1216235 C12.4423957,10.2938034 12.5084995,10.5385412 12.5084995,10.8558441 L12.5066548,10.9683754 L11.2429836,10.9683754 C11.2958674,11.4443299 11.5289217,11.6823035 11.9421535,11.6823035 C12.0934258,11.6823035 12.2791314,11.6417189 12.4992757,11.5605483 L12.4992757,11.8483333 Z M11.2595865,10.6953487 L12.143234,10.6953487 C12.143234,10.3227021 12.0042623,10.1363817 11.7263147,10.1363817 C11.4471373,10.1363817 11.2915628,10.3227021 11.2595865,10.6953487 Z M13.1357232,11.9129005 L13.1357232,9.9094743 L13.499144,9.9094743 L13.499144,10.2858085 C13.6430372,10.0054012 13.8521096,9.86519969 14.1263676,9.86519969 C14.1632633,9.86519969 14.2020032,9.86827429 14.2425885,9.87442357 L14.2425885,10.2138623 C14.1798658,10.1929547 14.1245231,10.1825011 14.0765587,10.1825011 C13.8465755,10.1825011 13.6541059,10.3190131 13.499144,10.5920412 L13.499144,11.9129005 L13.1357232,11.9129005 Z M15.2830418,11.9590198 C15.0985634,11.9590198 14.9546723,11.9061368 14.8513644,11.8003692 C14.7480564,11.6946015 14.6964032,11.5476359 14.6964032,11.3594678 L14.6964032,10.1825011 L14.4455138,10.1825011 L14.4455138,9.9094743 L14.6964032,9.9094743 L14.6964032,9.54605354 L15.059824,9.5110028 L15.059824,9.9094743 L15.5837402,9.9094743 L15.5837402,10.1825011 L15.059824,10.1825011 L15.059824,11.2930559 C15.059824,11.5550153 15.1729691,11.6859931 15.3992627,11.6859931 C15.4472271,11.6859931 15.5056444,11.6779991 15.5745164,11.662011 L15.5745164,11.9129005 C15.4625994,11.9436469 15.3654422,11.9590198 15.2830418,11.9590198 Z" id="Alert" fill="#272536"></path>
                    </g>
                </g>
            </g>
        </g>
    </g>
</svg>