<?xml version="1.0" encoding="UTF-8" standalone="no"?>
<svg width="15px" height="13px" viewBox="0 0 15 13" version="1.1" xmlns="http://www.w3.org/2000/svg" xmlns:xlink="http://www.w3.org/1999/xlink">
    <!-- Generator: sketchtool 39.1 (31720) - http://www.bohemiancoding.com/sketch -->
    <title>1550C6F2-59B7-4D84-85B5-895BDC799BF8</title>
    <desc>Created with sketchtool.</desc>
    <defs></defs>
    <g id="资料" stroke="none" stroke-width="1" fill="none" fill-rule="evenodd">
        <g id="认证发包方" transform="translate(-621.000000, -588.000000)" fill="#323A45">
            <g id="任务信息" transform="translate(176.000000, 453.000000)">
                <g id="招募中" transform="translate(54.000000, 68.000000)">
                    <g id="任务类型" transform="translate(390.000000, 63.000000)">
                        <g id="Web" transform="translate(1.000000, 0.000000)">
                            <path d="M13.3939394,6.85606061 L1.37878788,6.85606061 L0.689393939,6.85606061 L0.689393939,9.61363636 L3.4469697,9.61363636 L4.13636364,9.61363636 L10.6363636,9.61363636 L11.3257576,9.61363636 L13.8863636,9.61363636 L14.0833333,9.61363636 L14.0833333,6.85606061 L13.3939394,6.85606061 Z M5.51515152,4.68939394 C5.12121212,4.68939394 4.82575758,4.98484848 4.82575758,5.37878788 C4.82575758,5.77272727 5.12121212,6.06818182 5.51515152,6.06818182 C5.90909091,6.06818182 6.20454545,5.77272727 6.20454545,5.37878788 C6.20454545,5.08333333 5.90909091,4.68939394 5.51515152,4.68939394 L5.51515152,4.68939394 Z M3.4469697,4.68939394 C3.0530303,4.68939394 2.75757576,4.98484848 2.75757576,5.37878788 C2.75757576,5.77272727 3.0530303,6.06818182 3.4469697,6.06818182 C3.84090909,6.06818182 4.13636364,5.77272727 4.13636364,5.37878788 C4.13636364,5.08333333 3.84090909,4.68939394 3.4469697,4.68939394 L3.4469697,4.68939394 Z M1.37878788,4.68939394 C0.984848485,4.68939394 0.689393939,4.98484848 0.689393939,5.37878788 C0.689393939,5.77272727 0.984848485,6.06818182 1.37878788,6.06818182 C1.77272727,6.06818182 2.06818182,5.77272727 2.06818182,5.37878788 C2.06818182,5.08333333 1.77272727,4.68939394 1.37878788,4.68939394 L1.37878788,4.68939394 Z M0.689393939,16.3106061 L3.4469697,16.3106061 L3.4469697,10.3030303 L0.689393939,10.3030303 L0.689393939,16.3106061 Z M4.13636364,16.3106061 L10.6363636,16.3106061 L10.6363636,10.3030303 L4.13636364,10.3030303 L4.13636364,16.3106061 Z M11.3257576,16.3106061 L14.0833333,16.3106061 L14.0833333,10.3030303 L13.8863636,10.3030303 L11.3257576,10.3030303 L11.3257576,16.3106061 Z M14.0833333,17 L0.689393939,17 C0.295454545,17 0,16.7045455 0,16.3106061 L0,4.68939394 C0,4.29545455 0.295454545,4 0.689393939,4 L14.0833333,4 C14.4772727,4 14.7727273,4.29545455 14.7727273,4.68939394 L14.7727273,16.2121212 C14.7727273,16.6060606 14.4772727,17 14.0833333,17 L14.0833333,17 Z" id="Fill-5"></path>
                        </g>
                    </g>
                </g>
            </g>
        </g>
    </g>
</svg>