<?xml version="1.0" encoding="UTF-8" standalone="no"?>
<svg width="14px" height="14px" viewBox="0 0 14 14" version="1.1" xmlns="http://www.w3.org/2000/svg" xmlns:xlink="http://www.w3.org/1999/xlink">
    <!-- Generator: sketchtool 39.1 (31720) - http://www.bohemiancoding.com/sketch -->
    <title>C9577232-4073-4544-86E1-005D599974A3</title>
    <desc>Created with sketchtool.</desc>
    <defs></defs>
    <g id="钱包" stroke="none" stroke-width="1" fill="none" fill-rule="evenodd">
        <g id="支付宝管理" transform="translate(-740.000000, -33.000000)" fill="#FFFFFF">
            <g id="header">
                <g id="Group" transform="translate(740.000000, 30.000000)">
                    <path d="M13.4138367,9.4138661 L7.5861339,9.4138661 L7.5861339,3.5861829 C7.5861339,3.26258171 7.32353258,3 6.99993139,3 C6.67644782,3 6.4138857,3.26258171 6.4138857,3.5861829 L6.4138857,9.4138661 L0.586182902,9.4138661 C0.262581714,9.4138661 0,9.67646742 0,10.0000686 C0,10.3235522 0.262581714,10.5861339 0.586182902,10.5861339 L6.4138661,10.5861339 L6.4138661,16.4138367 C6.4138661,16.7379671 6.67642821,17 6.99993139,17 C7.32351298,17 7.5861143,16.7379671 7.5861143,16.4138367 L7.5861143,10.5861339 L13.4138171,10.5861339 C13.7379475,10.5861339 14,10.3235522 14,10.0000686 C14,9.67646742 13.7379671,9.4138661 13.4138367,9.4138661" id="Fill-1"></path>
                </g>
            </g>
        </g>
    </g>
</svg>