<?xml version="1.0" encoding="UTF-8" standalone="no"?>
<svg width="14px" height="14px" viewBox="0 0 14 14" version="1.1" xmlns="http://www.w3.org/2000/svg" xmlns:xlink="http://www.w3.org/1999/xlink">
    <!-- Generator: sketchtool 39.1 (31720) - http://www.bohemiancoding.com/sketch -->
    <title>7AD23D59-3C3A-4BF0-A9A7-8E46CA90A5C3</title>
    <desc>Created with sketchtool.</desc>
    <defs></defs>
    <g id="钱包" stroke="none" stroke-width="1" fill="none" fill-rule="evenodd">
        <g id="支付宝管理" transform="translate(-620.000000, -33.000000)" fill="#FFFFFF">
            <g id="header">
                <g id="Page-1" transform="translate(620.000000, 30.000000)">
                    <g id="Group-2" transform="translate(0.000000, 3.000000)">
                        <path d="M0.214,7.4303 L6.864,11.1633 C6.908,11.1883 6.953,11.2003 7,11.2003 C7.046,11.2003 7.093,11.1883 7.135,11.1633 L13.785,7.4303 C13.964,7.3303 14.047,7.0573 13.973,6.8193 C13.898,6.5813 13.692,6.4703 13.513,6.5693 L7,10.2263 L0.486,6.5693 C0.307,6.4703 0.102,6.5813 0.028,6.8193 C-0.048,7.0573 0.036,7.3303 0.214,7.4303 L0.214,7.4303 Z" id="Fill-1"></path>
                        <path d="M13.5135,9.3697 L7.0005,13.0267 L0.4855,9.3697 C0.3075,9.2697 0.1025,9.3807 0.0275,9.6187 C-0.0475,9.8567 0.0365,10.1307 0.2145,10.2307 L6.8635,13.9637 C6.9075,13.9877 6.9535,13.9997 7.0005,13.9997 C7.0455,13.9997 7.0925,13.9877 7.1355,13.9637 L13.7855,10.2307 C13.9635,10.1307 14.0465,9.8567 13.9725,9.6187 C13.8975,9.3807 13.6925,9.2697 13.5135,9.3697 L13.5135,9.3697 Z" id="Fill-4"></path>
                        <path d="M0.214,4.6302 L6.864,8.3632 C6.908,8.3882 6.954,8.4002 7,8.4002 C7.046,8.4002 7.093,8.3882 7.136,8.3632 L13.786,4.6302 C13.915,4.5572 14,4.3872 14,4.2002 C14,4.0122 13.915,3.8422 13.786,3.7702 L7.136,0.0362 C7.049,-0.0118 6.951,-0.0118 6.864,0.0362 L0.214,3.7702 C0.085,3.8422 0.001,4.0122 0.001,4.2002 C0.001,4.3872 0.085,4.5572 0.214,4.6302 L0.214,4.6302 Z M7,0.9732 L12.748,4.2002 L7,7.4262 L1.252,4.2002 L7,0.9732 Z" id="Fill-6"></path>
                    </g>
                </g>
            </g>
        </g>
    </g>
</svg>