<?xml version="1.0" encoding="UTF-8" standalone="no"?>
<svg width="112px" height="60px" viewBox="0 0 112 60" version="1.1" xmlns="http://www.w3.org/2000/svg" xmlns:xlink="http://www.w3.org/1999/xlink">
    <!-- Generator: sketchtool 39.1 (31720) - http://www.bohemiancoding.com/sketch -->
    <title>43534DBB-F46B-4CED-8571-200DB23CF982</title>
    <desc>Created with sketchtool.</desc>
    <defs></defs>
    <g id="钱包" stroke="none" stroke-width="1" fill="none" fill-rule="evenodd">
        <g id="支付宝管理_无信息状态" transform="translate(-664.000000, -348.000000)" fill="#434444">
            <g id="Group" transform="translate(20.000000, 102.000000)">
                <path d="M644,246.00243 L644,255.807692 L667.585567,255.807692 L667.585567,261 L677.364948,261 L677.364948,246.00243 L644,246.00243 Z M722.235052,246 L722.235052,255.805263 L745.820619,255.805263 L745.820619,260.99757 L755.6,260.99757 L755.6,246 L722.235052,246 Z M680.241237,295.038462 C680.241237,295.038462 690.883505,293.3222 701.525773,293.3222 C712.168041,293.3222 722.810309,295.615385 722.810309,295.615385 L722.810309,306 C722.810309,306 712.096899,302.57128 701.525773,302.57128 C690.954647,302.57128 680.241237,304.846154 680.241237,304.846154 L680.241237,295.038462 Z" id="Combined-Shape"></path>
            </g>
        </g>
    </g>
</svg>