<?xml version="1.0" encoding="UTF-8" standalone="no"?>
<svg width="64px" height="70px" viewBox="0 0 64 70" version="1.1" xmlns="http://www.w3.org/2000/svg" xmlns:xlink="http://www.w3.org/1999/xlink">
    <!-- Generator: sketchtool 39.1 (31720) - http://www.bohemiancoding.com/sketch -->
    <title>F858BF5B-3B8B-470F-956B-84CC84F24A56</title>
    <desc>Created with sketchtool.</desc>
    <defs></defs>
    <g id="钱包" stroke="none" stroke-width="1" fill="none" fill-rule="evenodd">
        <g id="提现_成功信息2" transform="translate(-688.000000, -280.000000)" fill="#69BF01">
            <g id="Group-2" transform="translate(0.000000, 80.000000)">
                <g id="成功" transform="translate(688.000000, 200.000000)">
                    <g>
                        <path d="M59.9883541,46.0482449 L59.9883541,46.0482449 C59.9883541,49.2227781 57.5521574,52.2459445 55.7253437,53.4556468 C53.4414689,54.96723 50.7012006,56.4788133 48.2650039,57.8391245 C45.6763899,59.3507077 43.2408608,60.56041 40.8045687,62.0719932 C38.8254331,63.2809378 35.3233645,65.6996793 32.4308697,65.6996793 L31.6698325,65.6996793 C29.8430188,65.6996793 28.1677639,64.9438877 27.1019875,64.3393681 C25.7314718,63.5835765 24.5133735,62.9791516 23.2952751,62.0719932 C20.8597461,60.711682 18.271132,59.3507077 15.682518,57.8391245 C13.2463213,56.4788133 10.5060531,54.96723 8.22217824,53.4556468 C6.24304262,52.2467023 3.95907243,49.0721691 3.95907243,45.8977307 L3.95907243,23.9781637 C3.95907243,20.8037253 6.24304262,17.7805589 8.22217824,16.4202476 C9.4402766,15.664456 10.8100292,15.0600311 12.0281276,14.3042395 C13.093904,13.5484479 14.4644197,12.7926563 15.682518,12.0368647 C18.271132,10.6765535 20.8597461,9.31633694 23.2952751,7.804659 C24.5133735,7.04886739 25.7315672,6.44444249 26.9496656,5.68865088 C28.015442,4.93285927 29.9945776,4.32833965 31.6698325,4.32833965 L31.9737133,4.32833965 C33.800527,4.32833965 35.6281037,4.78149256 36.8462975,5.53728417 C38.0643958,6.29307578 39.2824942,7.04886739 40.5006879,7.65338701 C43.0893019,9.16497023 45.5254987,10.5252815 48.1133496,12.0368647 C49.3315434,12.7926563 50.5496417,13.5484479 51.9201574,14.1528728 C52.9859338,14.7573924 54.5080083,15.664456 55.5745478,16.4202476 C57.5536835,17.6291922 59.9899756,20.8037253 59.9899756,23.8268917 L59.9899756,46.0482449 L59.9883541,46.0482449 Z M58.9218146,13.8510866 L58.9218146,13.8510866 C57.7037162,12.9439283 56.0293198,12.0368647 54.6588042,11.2810731 C53.1359666,10.5252815 51.765451,9.61812314 50.3956984,8.86233153 C47.5023452,7.19947632 44.609755,5.53652639 41.7172602,3.87367118 C40.3467446,3.11787957 38.82467,2.36208796 37.4541544,1.45492963 C36.236056,0.699138024 34.1045031,0.0947131258 31.9729502,0.0947131258 L31.6690694,0.0947131258 C29.8422557,0.0947131258 27.4059636,0.850504736 26.3401872,1.45492963 C24.9696715,2.36208796 23.446834,3.11787957 22.0771768,4.02494317 C19.1838235,5.6878931 16.2912334,7.19947632 13.3986432,8.86233153 C12.0281276,9.76948985 10.5060531,10.5252815 9.13553741,11.4323451 C7.76588018,12.1881367 6.24304262,12.9439283 4.87252697,13.8510866 C2.58865216,15.3626698 3.81520122e-05,18.839747 3.81520122e-05,22.467433 L3.81520122e-05,47.4093139 C3.81520122e-05,51.037 2.58865216,54.6653491 4.87252697,56.0256604 C7.46114098,57.8391245 10.6584703,59.3514655 13.3986432,61.0143207 C16.2912334,62.6772706 19.1845866,64.1888539 22.0771768,66.0030758 C23.446834,66.7588674 24.9696715,67.514659 26.3401872,68.4217226 C27.5582855,69.1775142 29.6898385,69.9333058 31.6690694,69.9333058 L32.5824286,69.9333058 C35.779758,69.9333058 39.7388876,67.2120203 42.0227624,65.8517091 C44.7629353,64.1896116 47.6562885,62.6772706 50.5496417,61.0150785 C53.2898146,59.5034953 56.487907,57.8406401 59.075758,56.1777848 C61.2073109,54.6662016 63.9482468,51.1897876 63.9482468,47.5614384 L63.9482468,22.3160663 C63.9467207,18.6883802 61.2056894,15.2113031 58.9218146,13.8510866 L58.9218146,13.8510866 Z" id="Fill-1"></path>
                        <path d="M49.1174152,26.46359 C48.7360858,26.0849838 47.9595016,26.2425074 47.382834,26.8151055 L30.0461782,44.0322639 L19.7190009,33.776364 C19.3376715,33.3976631 18.7196089,33.3976631 18.338375,33.776364 L16.957749,35.1474736 C16.5764197,35.5261746 16.5764197,36.139977 16.957749,36.5185832 L29.3850993,48.8611272 C29.7664286,49.2398281 30.3844912,49.2398281 30.7658206,48.8611272 L32.1464465,47.4900176 C32.2159785,47.4209648 32.2730158,47.3441448 32.3167952,47.2619256 L50.1440858,29.5574195 C50.7207535,28.9847267 50.8793705,28.2134005 50.4980411,27.8347943 L49.1174152,26.46359 Z" id="Fill-4"></path>
                    </g>
                </g>
            </g>
        </g>
    </g>
</svg>