<?xml version="1.0" encoding="UTF-8" standalone="no"?>
<svg width="32px" height="32px" viewBox="0 0 32 32" version="1.1" xmlns="http://www.w3.org/2000/svg" xmlns:xlink="http://www.w3.org/1999/xlink">
    <!-- Generator: Sketch 39.1 (31720) - http://www.bohemiancoding.com/sketch -->
    <title>反馈</title>
    <desc>Created with Sketch.</desc>
    <defs>
        <circle id="path-1" cx="16" cy="16" r="16"></circle>
        <mask id="mask-2" maskContentUnits="userSpaceOnUse" maskUnits="objectBoundingBox" x="0" y="0" width="32" height="32" fill="white">
            <use xlink:href="#path-1"></use>
        </mask>
    </defs>
    <g id="Symbols" stroke="none" stroke-width="1" fill="none" fill-rule="evenodd">
        <g id="反馈">
            <use id="bound" stroke-opacity="0.4" stroke="#FFFFFF" mask="url(#mask-2)" stroke-width="2" fill="#171B20" xlink:href="#path-1"></use>
            <g id="question" transform="translate(8.000000, 8.000000)">
                <rect id="border" x="0" y="0" width="16" height="16"></rect>
                <path d="M8,16 C7.44766667,16 7,15.5523333 7,15 C7,14.4476667 7.44766667,14 8,14 C8.55233333,14 9,14.4476667 9,15 C9,15.5523333 8.55233333,16 8,16 Z M7.44444444,11.4285714 C7.44444444,9.61942857 8.68777778,8.672 9.78481481,7.83657143 C10.9140741,6.976 11.8888889,6.23314286 11.8888889,4.67847619 C11.8888889,2.59657143 10.2896296,1.14285714 8,1.14285714 C5.71037037,1.14285714 4.11111111,2.78780952 4.11111111,5.14285714 C4.11111111,5.45866667 3.86259259,5.71428571 3.55555556,5.71428571 C3.24851852,5.71428571 3,5.45866667 3,5.14285714 C3,2.16304762 5.10296296,0 8,0 C10.897037,0 13,1.96761905 13,4.67847619 C13,6.80914286 11.642963,7.84266667 10.4462963,8.75428571 C9.43185185,9.528 8.55555556,10.1954286 8.55555556,11.4285714 C8.55555556,11.744381 8.30703704,12 8,12 C7.69296296,12 7.44444444,11.744381 7.44444444,11.4285714 Z" id="icon" fill="#FFFFFF"></path>
            </g>
        </g>
    </g>
</svg>