<?xml version="1.0" encoding="UTF-8" standalone="no"?>
<svg width="15px" height="15px" viewBox="0 0 15 15" version="1.1" xmlns="http://www.w3.org/2000/svg" xmlns:xlink="http://www.w3.org/1999/xlink">
    <!-- Generator: sketchtool 39.1 (31720) - http://www.bohemiancoding.com/sketch -->
    <title>0032D576-025B-4CC4-9529-8960499CA26F</title>
    <desc>Created with sketchtool.</desc>
    <defs></defs>
    <g id="资料" stroke="none" stroke-width="1" fill="none" fill-rule="evenodd">
        <g id="接包方信息空白信息" transform="translate(-264.000000, -281.000000)" fill="#C9C9C9">
            <g id="资料" transform="translate(156.000000, 81.000000)">
                <g id="个人信息">
                    <g id="Group-6" transform="translate(52.000000, 192.000000)">
                        <path d="M69.5099338,14.9 L63.9470199,14.9 L63.9470199,14.1 L69.6092715,14.1 L69.6092715,14.9 L69.5099338,14.9 Z M69.3112583,16.5 L65.0397351,16.5 L65.0397351,15.8 L69.3112583,15.8 L69.3112583,16.5 L69.3112583,16.5 Z M63.4503311,20.4 L57.589404,20.4 L57.589404,19.6 C57.589404,18.4 58.4834437,17.4 59.6754967,17.4 L61.3642384,17.4 C62.5562914,17.4 63.4503311,18.4 63.4503311,19.6 L63.4503311,20.4 Z M60.5695364,13 C61.5629139,13 62.4569536,13.8 62.4569536,14.9 C62.4569536,16 61.6622517,16.9 60.5695364,16.9 C59.4768212,16.9 58.6821192,16 58.6821192,15 C58.6821192,14 59.4768212,13 60.5695364,13 L60.5695364,13 Z M63.4503311,9 C63.7483444,9 63.9470199,9.2 63.9470199,9.5 C63.9470199,9.8 63.7483444,10 63.4503311,10 C63.1523179,10 62.9536424,9.8 62.9536424,9.5 C62.9536424,9.2 63.1523179,9 63.4503311,9 L63.4503311,9 Z M69.5099338,11.1 L64.8410596,11.1 L64.8410596,9.2 C64.8410596,8.5 64.1456954,8 63.4503311,8 C62.7549669,8 62.1589404,8.5 62.1589404,9.2 L62.1589404,11.1 L57.3907285,11.1 C56.5960265,11.1 56,11.7 56,12.5 L56,21.7 C56,22.4 56.5960265,23 57.3907285,23 L69.6092715,23 C70.4039735,23 71,22.4 71,21.6 L71,12.5 C70.9006623,11.7 70.3046358,11.1 69.5099338,11.1 L69.5099338,11.1 Z" id="身份"></path>
                    </g>
                </g>
            </g>
        </g>
    </g>
</svg>