<?xml version="1.0" encoding="UTF-8" standalone="no"?>
<svg width="15px" height="15px" viewBox="0 0 15 15" version="1.1" xmlns="http://www.w3.org/2000/svg" xmlns:xlink="http://www.w3.org/1999/xlink">
    <!-- Generator: sketchtool 39.1 (31720) - http://www.bohemiancoding.com/sketch -->
    <title>677C8178-AE38-425C-A2D4-CE775F5B5DCF</title>
    <desc>Created with sketchtool.</desc>
    <defs></defs>
    <g id="资料" stroke="none" stroke-width="1" fill="none" fill-rule="evenodd">
        <g id="接包方信息评价展开" transform="translate(-289.000000, -282.000000)" fill="#48A0FF">
            <g id="资料" transform="translate(156.000000, 82.000000)">
                <g id="个人信息">
                    <g id="Group-6" transform="translate(52.000000, 192.000000)">
                        <g id="学历" transform="translate(81.000000, 8.000000)">
                            <path d="M3.4,7.175 L3.4,10.175 C3.4,10.175 5.2,12.075 7.7,12.075 C10.9,12.075 12,10.175 12,10.175 L12,7.075 L8.3,9.575 C8.1,9.675 7.7,9.775 7.4,9.575 L3.4,7.175 Z" id="Fill-1"></path>
                            <path d="M7.8,4.475 C7.4,4.475 6.9,4.375 6.6,4.175 L2.2,5.775 L7.5,8.975 C7.7,9.075 8.1,9.075 8.4,8.975 L14.6,4.775 C14.8,4.675 15,4.275 15,3.975 C15,3.675 14.8,3.375 14.5,3.175 L8.1,0.075 C7.8,-0.025 7.4,-0.025 7.2,0.075 L1,3.675 C0.7,3.775 0.6,4.075 0.6,4.475 C0.6,4.775 0.8,5.075 1.1,5.275 L1.1,10.975 C0.8,11.075 0.5,11.375 0.5,11.775 C0.5,12.075 0.6,12.275 0.8,12.375 C0.7,12.775 0.6,13.175 0.3,13.375 C0.1,13.475 0,13.775 0,13.975 C0,14.275 0.2,14.475 0.4,14.675 L0.5,14.775 C0.7,14.975 1,14.975 1.2,14.975 C1.4,14.975 1.7,14.775 1.8,14.575 C2.2,13.775 2,12.775 1.8,12.275 C1.9,12.175 2,11.875 2,11.675 C2,11.275 1.8,11.075 1.4,10.875 L1.4,5.375 L6.3,3.675 L6.5,3.275 C6.5,3.375 6.5,4.075 7.6,4.075 C8.2,4.075 8.7,3.875 8.7,3.475 C8.7,3.375 8.7,3.375 8.6,3.175 C9,3.475 9.1,3.675 9.1,3.875 C9.1,4.275 8.5,4.475 7.8,4.475" id="Fill-3"></path>
                        </g>
                    </g>
                </g>
            </g>
        </g>
    </g>
</svg>