<?xml version="1.0" encoding="UTF-8" standalone="no"?>
<svg width="11px" height="15px" viewBox="0 0 11 15" version="1.1" xmlns="http://www.w3.org/2000/svg" xmlns:xlink="http://www.w3.org/1999/xlink">
    <!-- Generator: sketchtool 39.1 (31720) - http://www.bohemiancoding.com/sketch -->
    <title>184F68B2-0174-4513-A27A-2C67EDF883AD</title>
    <desc>Created with sketchtool.</desc>
    <defs></defs>
    <g id="资料" stroke="none" stroke-width="1" fill="none" fill-rule="evenodd">
        <g id="接包方信息评价展开" transform="translate(-342.000000, -282.000000)" fill="#48A0FF">
            <g id="资料" transform="translate(156.000000, 82.000000)">
                <g id="个人信息">
                    <g id="Group-6" transform="translate(52.000000, 192.000000)">
                        <path d="M140.6,9.5 C140.6,9.425 140.6,9.35 140.525,9.275 C140.45,9.2 140.375,9.2 140.3,9.2 L138.125,9.2 C138.05,9.2 137.975,9.2 137.975,9.275 C137.9,9.35 137.9,9.425 137.9,9.5 C137.9,9.575 137.9,9.65 137.975,9.725 C138.05,9.8 138.125,9.8 138.2,9.8 L140.375,9.8 C140.45,9.8 140.525,9.8 140.6,9.725 L140.6,9.5 Z M139.25,20.45 C139.025,20.45 138.8,20.525 138.65,20.75 C138.5,20.9 138.35,21.125 138.35,21.425 C138.35,21.65 138.425,21.875 138.65,22.1 C138.8,22.25 139.025,22.4 139.25,22.4 C139.475,22.4 139.7,22.325 139.925,22.1 C140.075,21.95 140.15,21.725 140.15,21.425 C140.15,21.2 140.075,20.975 139.925,20.75 C139.7,20.6 139.475,20.45 139.25,20.45 L139.25,20.45 Z M135.35,20 L143.15,20 L143.15,11 L135.35,11 L135.35,20 Z M144.575,20.825 C144.575,21.125 144.5,21.425 144.425,21.65 C144.275,21.875 144.125,22.1 143.975,22.325 C143.75,22.55 143.525,22.7 143.3,22.775 C143,23 142.7,23 142.4,23 L136.175,23 C135.875,23 135.575,22.925 135.275,22.85 C134.975,22.7 134.75,22.55 134.6,22.4 C134.375,22.175 134.225,21.95 134.15,21.725 C134,21.425 134,21.125 134,20.825 L134,10.175 C134,9.875 134.075,9.575 134.15,9.35 C134.3,9.125 134.45,8.825 134.6,8.675 C134.825,8.45 135.05,8.3 135.275,8.225 C135.575,8.075 135.875,8 136.175,8 L142.325,8 C142.625,8 142.925,8.075 143.225,8.15 C143.525,8.3 143.75,8.45 143.9,8.6 C144.125,8.825 144.275,9.05 144.35,9.275 C144.5,9.5 144.5,9.8 144.5,10.1 L144.575,20.825 Z" id="手机"></path>
                    </g>
                </g>
            </g>
        </g>
    </g>
</svg>