<?xml version="1.0" encoding="UTF-8" standalone="no"?>
<svg width="16px" height="16px" viewBox="0 0 16 16" version="1.1" xmlns="http://www.w3.org/2000/svg" xmlns:xlink="http://www.w3.org/1999/xlink">
    <!-- Generator: sketchtool 39.1 (31720) - http://www.bohemiancoding.com/sketch -->
    <title>5C4A6CC0-4B98-4D7D-8780-2B36FD08C2B5</title>
    <desc>Created with sketchtool.</desc>
    <defs></defs>
    <g id="钱包" stroke="none" stroke-width="1" fill="none" fill-rule="evenodd">
        <g id="支付宝管理" transform="translate(-239.000000, -19.000000)" fill="#FFFFFF">
            <g id="header">
                <g id="任务" transform="translate(200.000000, 0.000000)">
                    <path d="M52.3002136,26.8454762 L45.8002136,26.8454762 C45.3002136,26.8454762 44.8002136,26.4431441 44.8002136,25.8396459 C44.8002136,25.3367308 45.2002136,24.8338156 45.8002136,24.8338156 L52.4002136,24.8338156 C52.9002136,24.8338156 53.4002136,25.2361477 53.4002136,25.8396459 C53.4002136,26.5135522 52.9002136,26.8454762 52.3002136,26.8454762 L52.3002136,26.8454762 Z M44.8002136,29.762384 C44.8002136,29.2594689 45.2002136,28.7565537 45.8002136,28.7565537 L52.4002136,28.7565537 C52.9002136,28.7565537 53.4002136,29.1588858 53.4002136,29.762384 C53.4002136,30.3357073 52.9002136,30.7682143 52.3002136,30.7682143 L45.8002136,30.7682143 C45.3002136,30.7682143 44.8002136,30.3658822 44.8002136,29.762384 L44.8002136,29.762384 Z M41.2002136,25.9402289 C41.2002136,25.3367308 41.7002136,24.9343987 42.2002136,24.9343987 C42.8002136,24.9343987 43.2002136,25.4373138 43.2002136,25.9402289 C43.2002136,26.4431441 42.7002136,26.9460592 42.2002136,26.9460592 C41.6002136,26.9460592 41.2002136,26.4431441 41.2002136,25.9402289 L41.2002136,25.9402289 Z M42.2002136,28.7565537 C42.8002136,28.7565537 43.2002136,29.2594689 43.2002136,29.762384 C43.2002136,30.3658822 42.7002136,30.7682143 42.2002136,30.7682143 C41.6002136,30.7682143 41.2002136,30.2652991 41.2002136,29.762384 C41.2002136,29.1588858 41.7002136,28.7565537 42.2002136,28.7565537 L42.2002136,28.7565537 Z M55.0002136,22.3474032 C55.0002136,21.5256398 54.3962136,21.3134096 53.8862136,21.3134096 L47.7002136,21.3134096 C47.1222136,21.3134096 47.0312136,21.1172727 46.8742136,20.8919668 C46.8742136,20.8919668 46.7332136,20.6435267 46.2002136,19.7040812 C45.9572136,19.2082069 45.4902136,19 45.0002136,19 L40.6002136,19 C38.9452136,19 39.0002136,20.5087454 39.0002136,20.5087454 L39.0002136,33.483956 C39.0002136,35.1938675 40.2002136,34.9927015 40.2002136,34.9927015 L53.7002136,34.9927015 C55.1002136,34.9927015 55.0002136,33.5845391 55.0002136,33.5845391 L55.0002136,22.3474032 Z"></path>
                </g>
            </g>
        </g>
    </g>
</svg>