<?xml version="1.0" encoding="UTF-8" standalone="no"?>
<svg width="18px" height="15px" viewBox="0 0 18 15" version="1.1" xmlns="http://www.w3.org/2000/svg" xmlns:xlink="http://www.w3.org/1999/xlink">
    <!-- Generator: sketchtool 39.1 (31720) - http://www.bohemiancoding.com/sketch -->
    <title>29F91B09-B7B1-43A0-9F8D-1DB086264CC0</title>
    <desc>Created with sketchtool.</desc>
    <defs></defs>
    <g id="资料" stroke="none" stroke-width="1" fill="none" fill-rule="evenodd">
        <g id="接包方信息空白信息" transform="translate(-314.000000, -281.000000)" fill="#C9C9C9">
            <g id="资料" transform="translate(156.000000, 81.000000)">
                <g id="个人信息">
                    <g id="Group-6" transform="translate(52.000000, 192.000000)">
                        <g id="微信" transform="translate(106.000000, 8.000000)">
                            <path d="M4.275,4.425 C3.825,4.425 3.3,4.125 3.3,3.6 C3.3,3.075 3.75,2.775 4.275,2.775 C4.725,2.775 5.1,3.075 5.1,3.6 C5.1,4.05 4.8,4.425 4.275,4.425 M8.775,2.775 C9.225,2.775 9.6,3.075 9.6,3.6 C9.6,4.125 9.3,4.425 8.775,4.425 C8.325,4.425 7.8,4.125 7.8,3.6 C7.8,3.075 8.25,2.775 8.775,2.775 M12.15,4.5 C12.375,4.5 12.525,4.5 12.75,4.575 C12.225,1.95 9.525,0 6.375,0 C2.85,0 0,2.475 0,5.55 C0,7.35 0.975,8.775 2.55,9.975 L1.95,11.925 L4.2,10.8 C5.025,10.95 5.625,11.1 6.45,11.1 L7.05,11.1 C6.825,10.65 6.75,10.2 6.75,9.675 C6.75,6.825 9.15,4.5 12.15,4.5" id="Fill-1"></path>
                            <path d="M14.325,8.775 C14.025,8.775 13.725,8.475 13.725,8.1 C13.725,7.8 14.025,7.425 14.325,7.425 C14.775,7.425 15.15,7.725 15.15,8.1 C15.15,8.475 14.85,8.775 14.325,8.775 M10.8,8.775 C10.5,8.775 10.2,8.475 10.2,8.1 C10.2,7.8 10.5,7.425 10.8,7.425 C11.25,7.425 11.625,7.725 11.625,8.1 C11.625,8.475 11.325,8.775 10.8,8.775 M18,9.6 C18,6.975 15.45,4.875 12.6,4.875 C9.6,4.875 7.2,6.975 7.2,9.6 C7.2,12.225 9.6,14.325 12.6,14.325 C13.2,14.325 13.875,14.175 14.475,14.025 L16.2,15 L15.75,13.35 C17.025,12.375 18,11.1 18,9.6" id="Fill-3"></path>
                        </g>
                    </g>
                </g>
            </g>
        </g>
    </g>
</svg>