<?xml version="1.0" encoding="UTF-8" standalone="no"?>
<svg width="66px" height="15px" viewBox="0 0 66 15" version="1.1" xmlns="http://www.w3.org/2000/svg" xmlns:xlink="http://www.w3.org/1999/xlink">
    <!-- Generator: sketchtool 39.1 (31720) - http://www.bohemiancoding.com/sketch -->
    <title>CB2D9DC5-6C36-48A9-95FB-67DD3C4B2969</title>
    <desc>Created with sketchtool.</desc>
    <defs></defs>
    <g id="资料" stroke="none" stroke-width="1" fill="none" fill-rule="evenodd">
        <g id="认证发包方" transform="translate(-708.000000, -906.000000)">
            <g id="任务信息" transform="translate(176.000000, 453.000000)">
                <g id="测试中" transform="translate(54.000000, 388.000000)">
                    <g id="测试类型" transform="translate(478.000000, 64.000000)">
                        <g id="安全测试">
                            <path d="M6.3,8.5 L6.3,2.5 L1.4,4.6 L1.4,8.5 L6.3,8.5 L6.3,14.6 C7,14.4 7.6,14.1 8.1,13.7 C8.7,13.3 9.1,12.8 9.6,12.3 C10,11.8 10.4,11.2 10.7,10.5 C11,9.9 11.2,9.2 11.3,8.5 L6.3,8.5 Z M6.3,1 L12.6,3.7 L12.6,7.8 C12.6,8.7 12.4,9.7 12.1,10.5 C11.8,11.5 11.4,12.3 10.8,13 C10.2,13.7 9.6,14.4 8.8,14.9 C8,15.4 7.2,15.8 6.3,16 C5.4,15.8 4.5,15.4 3.8,14.9 C3,14.4 2.4,13.7 1.8,13 C1.2,12.3 0.8,11.5 0.5,10.6 C0.1,9.7 0,8.8 0,7.8 L0,3.7 L6.3,1 Z" id="Page-1" fill="#6C7686"></path>
                            <text font-family=".PingFangSC-Regular, .PingFang SC" font-size="12" font-weight="normal" line-spacing="16" fill="#6C7786">
                                <tspan x="18" y="12">安全测试</tspan>
                            </text>
                        </g>
                    </g>
                </g>
            </g>
        </g>
    </g>
</svg>