<?xml version="1.0" encoding="UTF-8" standalone="no"?>
<svg width="15px" height="16px" viewBox="0 0 15 16" version="1.1" xmlns="http://www.w3.org/2000/svg" xmlns:xlink="http://www.w3.org/1999/xlink">
    <!-- Generator: sketchtool 39.1 (31720) - http://www.bohemiancoding.com/sketch -->
    <title>0BAB680C-D5B4-4494-A79C-83E202D61168</title>
    <desc>Created with sketchtool.</desc>
    <defs></defs>
    <g id="资料" stroke="none" stroke-width="1" fill="none" fill-rule="evenodd">
        <g id="接包方信息评价展开" transform="translate(-228.000000, -282.000000)" fill="#E75180">
            <g id="资料" transform="translate(156.000000, 82.000000)">
                <g id="个人信息">
                    <g id="Group-6" transform="translate(52.000000, 192.000000)">
                        <g id="性别" transform="translate(20.000000, 8.000000)">
                            <path d="M2.6,6.4 C2.6,7.7 3,8.9 3.6,9.9 L2.6,10.9 L1.7,10 C1.3,9.6 0.8,9.6 0.4,10 C1.11022302e-16,10.4 1.11022302e-16,11 0.4,11.4 L1.3,12.3 L0.3,13.4 C-0.1,13.8 -0.1,14.4 0.3,14.8 C0.7,15.2 1.2,15.2 1.6,14.8 L2.6,13.7 L3.4,14.5 C3.8,14.9 4.3,14.9 4.7,14.5 C5.1,14.1 5.1,13.5 4.7,13.1 L3.9,12.3 L4.8,11.4 C5.9,12.4 7.3,12.9 8.8,12.9 C12.2,12.9 15,10 15,6.5 C15,2.9 12.2,1.77635684e-15 8.8,1.77635684e-15 C5.4,1.77635684e-15 2.6,2.9 2.6,6.4 M8.8,11 C6.4,11 4.5,9 4.5,6.5 C4.5,4 6.4,2 8.8,2 C11.2,2 13.1,4 13.1,6.5 C13.2,8.9 11.2,11 8.8,11" id="Page-1"></path>
                        </g>
                    </g>
                </g>
            </g>
        </g>
    </g>
</svg>