<?xml version="1.0" encoding="UTF-8" standalone="no"?>
<svg width="68px" height="15px" viewBox="0 0 68 15" version="1.1" xmlns="http://www.w3.org/2000/svg" xmlns:xlink="http://www.w3.org/1999/xlink">
    <!-- Generator: sketchtool 39.1 (31720) - http://www.bohemiancoding.com/sketch -->
    <title>745CD8EC-6689-4A9E-A8E3-2F0E57437623</title>
    <desc>Created with sketchtool.</desc>
    <defs></defs>
    <g id="资料" stroke="none" stroke-width="1" fill="none" fill-rule="evenodd">
        <g id="认证发包方" transform="translate(-708.000000, -799.000000)">
            <g id="任务信息" transform="translate(176.000000, 453.000000)">
                <g id="测试中" transform="translate(54.000000, 281.000000)">
                    <g id="测试类型" transform="translate(478.000000, 64.000000)">
                        <g id="性能测试">
                            <path d="M6.59527294,7.60601625 C6.09563105,8.10565814 6.09563105,8.90508517 6.59527294,9.40472706 C7.09491483,9.90436895 7.89434186,9.90436895 8.39398375,9.40472706 C8.69376888,9.10494192 8.79369726,8.60530003 8.69376888,8.20558652 L12.9906891,3.50895276 C13.1905459,3.309096 13.3904026,3.00931087 13.1905459,2.80945411 C13.0906175,2.70952574 12.7908324,2.80945411 12.4910472,3.00931087 L7.89434186,7.30623112 C7.49462834,7.10637436 6.99498646,7.20630274 6.59527294,7.60601625 Z M7.99427023,6.10709058 L10.7922648,3.90866627 C8.5938405,2.30981222 5.49606079,2.50966898 3.49749323,4.50823654 C1.29906891,6.70666085 1.29906891,10.3040825 3.49749323,12.5025068 C5.69591754,14.7009311 9.29333915,14.7009311 11.4917635,12.5025068 C13.490331,10.5039392 13.6901878,7.50608788 12.1912621,5.30766356 L9.89290942,8.10565814 C9.99283779,8.90508517 9.79298104,9.70451219 9.19341077,10.2041541 C8.19412699,11.2034379 6.69520132,11.2034379 5.69591754,10.2041541 C4.69663376,9.2048703 4.69663376,7.70594463 5.69591754,6.70666085 C6.39541619,6.20701896 7.19484321,5.90723383 7.99427023,6.10709058 Z M13.3904026,3.80873789 L12.9906891,4.2084514 C15.1891134,7.00644599 14.9892567,11.0035811 12.4910472,13.5017906 C9.79298104,16.1998568 5.39613241,16.1998568 2.59813783,13.5017906 C1.29906891,12.2027216 0.599570268,10.4040108 0.599570268,8.60530003 C0.599570268,6.80658923 1.29906891,5.00787843 2.59813783,3.70880951 C5.09634727,1.01074331 9.09348239,0.810886555 11.891477,3.10923925 L12.1912621,2.70952574 C10.7922648,1.5103852 8.99355401,0.910814933 7.09491483,1.01074331 C5.29620403,1.11067169 3.49749323,1.91009871 2.19842431,3.20916763 C1.49892567,3.90866627 0.899355401,4.70809329 0.49964189,5.70737707 C0.199856756,6.60673247 0,7.50608788 0,8.50537166 C0,9.50465543 0.199856756,10.4040108 0.49964189,11.3033662 C0.899355401,12.2027216 1.39899729,13.102077 2.09849594,13.8015757 C2.79799458,14.5010743 3.69734998,15.1006446 4.59670538,15.4004297 C5.59598916,15.8001432 6.49534457,16 7.49462834,16 C8.49391212,16 9.39326753,15.8001432 10.2926229,15.5003581 C11.1919783,15.1006446 12.0913337,14.6010027 12.7908324,13.9015041 C14.0899013,12.6024352 14.8893283,10.9036527 14.9892567,9.00501354 C15.0891851,7.10637436 14.4896148,5.30766356 13.3904026,3.80873789 Z" id="Combined-Shape" fill="#6C7686"></path>
                            <text id="性能" font-family=".PingFangSC-Regular, .PingFang SC" font-size="12" font-weight="normal" line-spacing="16" fill="#6C7786">
                                <tspan x="20" y="12">性能测试</tspan>
                            </text>
                        </g>
                    </g>
                </g>
            </g>
        </g>
    </g>
</svg>