<?xml version="1.0" encoding="UTF-8" standalone="no"?>
<svg width="20px" height="20px" viewBox="0 0 20 20" version="1.1" xmlns="http://www.w3.org/2000/svg" xmlns:xlink="http://www.w3.org/1999/xlink">
    <!-- Generator: sketchtool 39.1 (31720) - http://www.bohemiancoding.com/sketch -->
    <title>290E0371-816F-48D9-AD90-663DD9A23B7D</title>
    <desc>Created with sketchtool.</desc>
    <defs></defs>
    <g id="资料" stroke="none" stroke-width="1" fill="none" fill-rule="evenodd">
        <g id="接包方设置－工作经验有内容" transform="translate(-979.000000, -106.000000)" fill="#0096FF">
            <g id="Group-6" transform="translate(220.000000, 87.000000)">
                <g id="Page-1" transform="translate(759.000000, 19.000000)">
                    <path d="M1.08947917,9.99979167 C1.08947917,5.07880208 5.07776042,1.08942708 9.99880208,1.08942708 C14.9210938,1.08942708 18.9101563,5.07880208 18.9101563,9.99979167 C18.9101563,14.9208073 14.9210938,18.9105729 9.99880208,18.9105729 C5.07773438,18.9105729 1.08947917,14.9207812 1.08947917,9.99979167 M0,9.99960938 C0,15.5223438 4.47851563,20 9.99880208,20 C15.521875,20 20,15.5223438 20,9.99960938 C20,4.47744792 15.521875,0 9.99880208,0 C4.47854167,0 0,4.47765625 0,9.99960938" id="Fill-1"></path>
                    <path d="M6.24947917,10.9546615 C6.09385417,11.1144271 5.90869792,11.2335938 5.70473958,11.302526 L5.70473958,14.9671615 C5.70473958,15.0979948 5.81304688,15.2055729 5.94476563,15.2055729 L8.82502604,15.2055729 C8.95723958,15.2055729 9.06505208,15.0979948 9.06505208,14.9671615 L9.06505208,11.8678385 L10.9852083,11.8678385 L10.9852083,14.9671615 C10.9852083,15.0979948 11.0934896,15.2055729 11.2252344,15.2055729 L14.1055208,15.2055729 C14.2377344,15.2055729 14.3455469,15.0979948 14.3455469,14.9671615 L14.3455469,11.3048438 C14.1416406,11.2336198 13.9545833,11.1144271 13.7984896,10.9546875 L10.0251563,7.10166667 L6.24945313,10.9546615 L6.24947917,10.9546615 Z M10.2894792,3.54489583 C10.2004167,3.45197917 10.0372656,3.45197917 9.94630208,3.54489583 L4.63677083,8.96619792 C4.26505208,9.34315104 4.26505208,9.95825521 4.63677083,10.3373177 C4.81679687,10.523099 5.05916667,10.6260156 5.31838542,10.6260156 C5.48903646,10.6260156 5.65453125,10.5803906 5.7984375,10.4947135 C5.87065104,10.451849 5.93765625,10.3992448 5.99765625,10.3373438 L10.1188021,6.13184896 L14.2376562,10.3373438 C14.2976562,10.3992969 14.3675,10.4542188 14.4392187,10.4970573 C14.5831771,10.5804167 14.7467708,10.6260417 14.9192969,10.6260417 C15.1761979,10.6260417 15.4185677,10.523151 15.5985937,10.3373438 C15.9708333,9.95830729 15.9708333,9.34317708 15.5985937,8.96622396 L10.2894792,3.54492188 L10.2894792,3.54489583 Z" id="Fill-3"></path>
                </g>
            </g>
        </g>
    </g>
</svg>