<?xml version="1.0" encoding="UTF-8" standalone="no"?>
<svg width="20px" height="20px" viewBox="0 0 20 20" version="1.1" xmlns="http://www.w3.org/2000/svg" xmlns:xlink="http://www.w3.org/1999/xlink">
    <!-- Generator: sketchtool 39.1 (31720) - http://www.bohemiancoding.com/sketch -->
    <title>DFFC453C-20DF-4E41-843D-D8B9BF2C2843</title>
    <desc>Created with sketchtool.</desc>
    <defs></defs>
    <g id="钱包" stroke="none" stroke-width="1" fill="none" fill-rule="evenodd">
        <g id="支付宝管理" transform="translate(-457.000000, -301.000000)" fill="#00AAEE">
            <g id="Group" transform="translate(20.000000, 102.000000)">
                <g id="支付宝账号" transform="translate(400.000000, 179.000000)">
                    <path d="M41.8608801,30.8641458 C41.3610936,30.9137084 40.4230538,31.135125 39.9100756,31.5886042 C38.3722836,32.9288125 39.2923953,35.380125 42.4038563,35.380125 C44.2122327,35.380125 46.0198612,34.2235 47.4393855,32.3725417 C45.4205038,31.3870417 43.7091638,30.6816667 41.8608801,30.8641667 L41.8608801,30.8641458 Z M53.4667597,32.5579375 C56.3468165,33.5225209 57,33.5743125 57,33.5743125 L57,23.2040208 C57,21.4342083 55.5673049,20 53.7973816,20 L40.2037194,20 C38.433443,20 37,21.4342292 37,23.2040208 L37,36.7963542 C37,38.5654375 38.433443,40 40.2037194,40 L53.7973816,40 C55.5673049,40 57,38.5657917 57,36.7963542 L57,36.6652708 C57,36.6652708 51.7978823,34.4966875 49.1708349,33.2335834 C47.4093459,35.4006875 45.136333,36.7166667 42.7769408,36.7166667 C38.7863765,36.7166667 37.4313147,33.2247709 39.3205859,30.9258542 C39.7328506,30.4253958 40.4336487,29.9465833 41.5214499,29.6781875 C43.2225274,29.2603333 45.9308851,29.9392709 48.4685826,30.7767917 C48.9247848,29.9355833 49.3088589,29.0099167 49.5952109,28.0236667 L41.7737322,28.0236667 L41.7737322,27.2312917 L45.8064059,27.2312917 L45.8064059,25.8114167 L40.9220925,25.8114167 L40.9220925,25.0186667 L45.8064059,25.0186667 L45.8064059,22.9929167 C45.8064059,22.9929167 45.8064059,22.6514375 46.1524216,22.6514375 L48.1233563,22.6514375 L48.1233563,25.0186667 L52.9527428,25.0186667 L52.9527428,25.8114167 L48.1233563,25.8114167 L48.1233563,27.2312917 L52.0655791,27.2312917 C51.6884436,28.7763958 51.1150747,30.1988542 50.3963485,31.4476458 C51.592529,31.8801875 52.6667854,32.2903125 53.4668012,32.558 L53.4667597,32.5579375 Z" id="Icon"></path>
                </g>
            </g>
        </g>
    </g>
</svg>