<?xml version="1.0" encoding="UTF-8" standalone="no"?>
<svg width="25px" height="20px" viewBox="0 0 25 20" version="1.1" xmlns="http://www.w3.org/2000/svg" xmlns:xlink="http://www.w3.org/1999/xlink">
    <!-- Generator: sketchtool 39.1 (31720) - http://www.bohemiancoding.com/sketch -->
    <title>C4EFC830-C3E1-4D30-8102-23A612873500</title>
    <desc>Created with sketchtool.</desc>
    <defs></defs>
    <g id="资料" stroke="none" stroke-width="1" fill="none" fill-rule="evenodd">
        <g id="资料_基本设置未绑定手机" transform="translate(-808.000000, -157.000000)" fill="#FFFFFF">
            <g id="Group-2" transform="translate(220.000000, 87.000000)">
                <g id="Group" transform="translate(550.000000, 30.000000)">
                    <g id="编辑头像" transform="translate(38.000000, 40.000000)">
                        <path d="M24.5313627,4.60317383 L23.2813506,5.87302246 L19.2188176,1.74602051 L20.4688296,0.476196289 C20.7813266,0.158740234 21.0938236,0 21.4063206,0 C21.7188416,0 22.0313386,0.158740234 22.3438356,0.476196289 L24.5313627,2.69841309 C24.8437876,3.01586914 25,3.3333252 25,3.65078125 C25,3.96826172 24.8437876,4.28571777 24.5313627,4.60317383 L24.5313627,4.60317383 Z M18.4375631,2.69841309 L22.5000961,6.82539063 L13.1250421,16.3491943 L8.90627253,16.3491943 L8.90627253,12.2222168 L18.4375631,2.69841309 L18.4375631,2.69841309 Z M19.6875751,13.1746094 L19.6875751,15.8730225 C19.6875751,16.9841309 19.2188176,17.936499 18.4375631,18.7301514 C17.6563086,19.5238037 16.7188176,20 15.6250661,20 L4.06250901,20 C2.96875751,20 2.03126652,19.5238037 1.25001202,18.7301514 C0.46875751,18.0952393 0,17.1428467 0,15.8730225 L0,4.12697754 C0,3.01586914 0.46875751,2.06350098 1.25001202,1.26984863 C2.03126652,0.476196289 2.96875751,0 4.06250901,0 L15.6250661,0 C16.2500601,0 16.7406633,0.103344727 17.1875751,0.317456055 C17.3275655,0.384521484 17.4477289,0.463867187 17.5000721,0.634912109 C17.5543379,0.812255859 17.4717616,0.970458984 17.3438116,1.1111084 L16.7188176,1.74602051 C16.5625571,1.90476074 16.3964191,1.96032715 16.2500601,1.90476074 C16.0237924,1.81884766 15.7813026,1.74602051 15.6250661,1.74602051 L4.06250901,1.74602051 C3.43751502,1.74602051 2.96875751,1.90476074 2.5,2.38095703 C2.03126652,2.85715332 1.87500601,3.3333252 1.87500601,3.96826172 L1.87500601,15.8730225 C1.87500601,16.5079346 2.03126652,16.9841309 2.5,17.4603271 C2.96875751,17.936499 3.43751502,18.0952393 4.06250901,18.0952393 L15.6250661,18.0952393 C16.2500601,18.0952393 16.7188176,17.936499 17.1875751,17.4603271 C17.6563086,16.9841309 17.8125691,16.5079346 17.8125691,15.8730225 L17.8125691,14.1269775 C17.8125691,13.9682617 17.8125691,13.9682617 17.9688296,13.8095215 L18.9063206,12.8571533 C19.0625811,12.6984131 19.2101178,12.6546143 19.3750781,12.6984131 C19.5262437,12.7385498 19.6875751,13.0158691 19.6875751,13.1746094 L19.6875751,13.1746094 Z M18.5938236,4.76191406 C18.4375631,4.60317383 18.2813266,4.60317383 18.1250661,4.76191406 L13.2813026,9.84125977 C13.1250421,10 13.1250421,10.1587402 13.2813026,10.3174561 C13.4375391,10.4761963 13.5937996,10.4761963 13.7500601,10.3174561 L18.5938236,5.39682617 C18.7500601,5.07937012 18.7500601,4.92062988 18.5938236,4.76191406 L18.5938236,4.76191406 Z M12.5000481,15.0793701 L14.0625571,13.4920654 L11.8750541,11.2698486 L10.3125451,12.8571533 L10.3125451,13.6507812 L11.7187936,13.6507812 L11.7187936,15.0793701 L12.5000481,15.0793701 L12.5000481,15.0793701 Z"></path>
                    </g>
                </g>
            </g>
        </g>
    </g>
</svg>