<?xml version="1.0" encoding="UTF-8"?>
<svg width="16px" height="18px" viewBox="0 0 16 18" version="1.1" xmlns="http://www.w3.org/2000/svg" xmlns:xlink="http://www.w3.org/1999/xlink">
    <!-- Generator: Sketch 45.2 (43514) - http://www.bohemiancoding.com/sketch -->
    <title>小贴示</title>
    <desc>Created with Sketch.</desc>
    <defs></defs>
    <g id="常规发布任务" stroke="none" stroke-width="1" fill="none" fill-rule="evenodd">
        <g id="发布任务_前端" transform="translate(-1023.000000, -191.000000)" fill="#3CC8B4">
            <g id="小贴示" transform="translate(1008.000000, 175.000000)">
                <path d="M22.9915432,19.3954678 C20.2948574,19.3954678 18.0959279,21.5636149 18.0959279,24.2227689 C18.0959279,25.8181238 19.1331607,26.96361 19.1331607,26.96361 C19.9214656,27.8227002 20.5437853,29.3772115 20.5437853,30.5226977 L20.5437853,31.5454568 C20.5437853,32.2000344 21.0830627,32.7317866 21.7469037,32.7317866 L24.1946615,32.7317866 C24.8585024,32.7317866 25.3978794,32.2000344 25.3978794,31.5454568 L25.3978794,30.5226977 C25.3978794,29.3772115 26.0201992,27.8227002 26.8084045,26.96361 C26.8084045,26.96361 27.8456372,25.8181238 27.8456372,24.2227689 C27.8871584,21.6045567 25.6882289,19.3954678 22.9915432,19.3954678 M24.1946615,34 L21.7469037,34 C20.4193214,34 19.2991458,32.8954555 19.2991458,31.5863986 L19.2991458,30.5636395 C19.2991458,29.7045494 18.80129,28.436336 18.261913,27.8227002 C18.2203919,27.7817584 16.9343308,26.3499742 16.9343308,24.2227689 C16.9343308,20.9091355 19.6725377,18.209138 23.0330643,18.209138 C26.393591,18.209138 29.0902767,20.8681938 29.0902767,24.1818271 C29.0902767,26.2681888 27.8041161,27.699973 27.7626945,27.7817584 C27.1817963,28.3953942 26.7254617,29.6636076 26.7254617,30.5226977 L26.7254617,31.5454568 C26.6425189,32.8954555 25.5223434,34 24.1946615,34 Z M22.9915432,17.8000638 C22.6595729,17.8000638 22.3692234,17.5136677 22.3692234,17.186428 L22.3692234,16.6136358 C22.3692234,16.2863961 22.6595729,16 22.9915432,16 C23.3234138,16 23.6138629,16.2863961 23.6138629,16.6136358 L23.6138629,17.2272716 C23.6138629,17.5136677 23.3234138,17.8000638 22.9915432,17.8000638 Z M16.2704898,20.2136653 C16.1460259,20.2136653 15.9800408,20.1727235 15.8555768,20.0909381 L15.2332571,19.5182441 C14.9843292,19.2727898 14.9013864,18.9046083 15.1503143,18.6591539 C15.3992422,18.4136996 15.772634,18.3727578 16.0215619,18.6182122 L16.6438817,19.1909062 C16.8928096,19.4363605 16.9342312,19.804542 16.6853033,20.0499963 C16.6023605,20.1727235 16.4778966,20.2136653 16.2704898,20.2136653 Z M29.7125965,20.2136653 C29.5881325,20.2136653 29.3807258,20.1727235 29.2976835,20.0091527 C29.0487556,19.7636984 29.0902767,19.3955169 29.3392046,19.1500626 L29.9615244,18.5772704 C30.2104523,18.3318161 30.5838441,18.3727578 30.832772,18.6182122 C31.0816999,18.8636665 31.0401788,19.231848 30.7912509,19.4773023 L30.1689311,20.0909381 C30.0030456,20.1727235 29.8785816,20.2136653 29.7125965,20.2136653 Z M24.1946615,31.6272912 L21.7469037,31.6272912 C21.4149334,31.6272912 21.1245839,31.3408951 21.1245839,31.0136554 C21.1245839,30.6864157 21.4149334,30.4000196 21.7469037,30.4000196 L24.1946615,30.4000196 C24.5266317,30.4000196 24.8169812,30.6864157 24.8169812,31.0136554 C24.8169812,31.3408951 24.5266317,31.6272912 24.1946615,31.6272912 M25.439301,26.2272962 C25.1903731,26.2272962 24.9414452,26.104569 24.8585024,25.8181729 L24.5680533,24.918141 L23.4064562,26.0227836 C23.1575283,26.2682379 22.7840369,26.2682379 22.535109,26.0227836 L21.3735118,24.8772974 L21.1245839,25.8181729 C21.0415416,26.1455108 20.7096709,26.3090815 20.336279,26.1863544 C20.0044084,26.104569 19.8384232,25.7773293 19.9628872,25.4091478 L20.5852069,23.609084 C20.6267281,23.4045715 20.8341348,23.2818443 21.00012,23.2409025 C21.2075267,23.1999607 21.4149334,23.2409025 21.5809185,23.3636297 L22.9915432,24.7545702 L24.4021678,23.3636297 C24.5266317,23.2409025 24.7755596,23.1591171 24.9829664,23.2409025 C25.1903731,23.2818443 25.3563582,23.445415 25.3978794,23.609084 L26.0201992,25.4091478 C26.1031419,25.7363875 25.978678,26.0636272 25.6468073,26.1863544 C25.6052861,26.2272962 25.4808222,26.2272962 25.439301,26.2272962"></path>
            </g>
        </g>
    </g>
</svg>