<?xml version="1.0" encoding="UTF-8"?>
<svg width="30px" height="30px" viewBox="0 0 30 30" version="1.1" xmlns="http://www.w3.org/2000/svg" xmlns:xlink="http://www.w3.org/1999/xlink">
    <!-- Generator: Sketch 45.2 (43514) - http://www.bohemiancoding.com/sketch -->
    <title>上传文件</title>
    <desc>Created with Sketch.</desc>
    <defs></defs>
    <g id="常规发布任务" stroke="none" stroke-width="1" fill="none" fill-rule="evenodd">
        <g id="前端_填写任务详情" transform="translate(-643.000000, -691.000000)" fill="#666666">
            <g id="Group">
                <g id="其他说明" transform="translate(173.000000, 493.000000)">
                    <g id="上传设计稿" transform="translate(270.000000, 170.000000)">
                        <g id="Group-2">
                            <path d="M227.873546,57.0256178 C227.873546,57.563712 227.43795,58 226.900325,58 L203.083701,58 C202.546076,58 202.110479,57.563884 202.110479,57.0256178 L202.110479,56.7925984 C202.110479,56.2545042 202.546076,55.8182162 203.083701,55.8182162 L226.900496,55.8182162 C227.43795,55.8182162 227.873546,56.2545042 227.873546,56.7925984 L227.873546,57.0256178 Z M228.590323,39.3811486 C227.888662,38.5531129 226.973325,37.875723 225.939813,37.5293753 C225.718408,35.0155174 224.640753,32.7573789 222.979955,31.0562514 C221.119909,29.1742114 218.543259,28 215.731119,28 C213.656366,28 211.72229,28.6323338 210.098421,29.7313943 C208.621928,30.7099038 207.411326,32.0648556 206.60695,33.6908323 C204.857177,33.9768184 203.277452,34.8347769 202.125938,36.0841392 C200.797162,37.4992806 200,39.4112434 200,41.5037747 C200,43.6867623 200.871021,45.673876 202.288256,47.1041508 L202.266442,47.1041508 C203.672341,48.5454316 205.599718,49.432625 207.748158,49.4374402 L207.748158,47.0738841 C206.248991,47.0690689 204.882942,46.4529003 203.905083,45.4480794 C202.908329,44.4394751 202.303028,43.0544285 202.303028,41.5037747 C202.303028,40.0284438 202.878785,38.6886253 203.794294,37.6949825 C204.709631,36.7013396 205.986877,36.0540444 207.396554,35.9787216 C207.839537,35.9635882 208.245762,35.6927354 208.430066,35.2561035 C209.050138,33.7809446 210.08365,32.5465437 211.375668,31.6732799 C212.608083,30.8454161 214.114121,30.3485947 215.731119,30.3485947 C217.915972,30.3485947 219.909136,31.2517813 221.348357,32.7121508 C222.780536,34.1874817 223.681101,36.2045182 223.681101,38.4476953 C223.681101,39.0047062 224.064824,39.5015277 224.625981,39.6069453 C225.511775,39.7725524 226.279393,40.2241457 226.840379,40.8865743 C227.35722,41.5490029 227.689758,42.392 227.689758,43.3103199 C227.689758,44.3641523 227.283361,45.2824722 226.604201,45.9749956 C225.954585,46.6525575 225.039248,47.074056 224.028238,47.074056 L224.005737,47.074056 L223.630258,47.074056 L223.630258,49.4376121 L224.005737,49.4376121 L224.035281,49.4376121 C225.674093,49.4075174 227.158144,48.715166 228.243013,47.6460284 C229.32084,46.5320065 230,45.0116194 230,43.3103199 C230,41.8200276 229.453615,40.4499424 228.590323,39.3811486 L228.590323,39.3811486 Z M219.096858,46.4331237 C218.716914,46.8135214 218.100792,46.8135214 217.720847,46.4331237 L216.232501,44.9182397 L216.232501,52.8921461 C216.232501,53.4302404 215.796733,53.8665283 215.259451,53.8665283 L214.961782,53.8665283 C214.424329,53.8665283 213.988732,53.4302404 213.988732,52.8921461 L213.988732,44.7890902 L212.373624,46.4331237 C211.993507,46.8135214 211.377385,46.8135214 210.997441,46.4331237 L210.787028,46.2226324 C210.407084,45.8420627 210.407084,45.2252062 210.787028,44.8446365 L214.318006,41.2502909 C214.518456,41.0496019 214.784692,40.9548464 215.04715,40.9658525 C215.309607,40.9548464 215.575843,41.0496019 215.776293,41.2502909 L219.307271,44.8446365 C219.687387,45.2252062 219.687387,45.8420627 219.307271,46.2226324 L219.096858,46.4331237 Z" id="上传文件"></path>
                        </g>
                    </g>
                </g>
            </g>
        </g>
    </g>
</svg>