<?xml version="1.0" encoding="UTF-8"?>
<svg width="16px" height="16px" viewBox="0 0 16 16" version="1.1" xmlns="http://www.w3.org/2000/svg" xmlns:xlink="http://www.w3.org/1999/xlink">
    <!-- Generator: Sketch 45.2 (43514) - http://www.bohemiancoding.com/sketch -->
    <title>费用明细</title>
    <desc>Created with Sketch.</desc>
    <defs></defs>
    <g id="常规发布任务" stroke="none" stroke-width="1" fill="none" fill-rule="evenodd">
        <g id="前端_选择工程师级别" transform="translate(-1023.000000, -402.000000)" fill="#3CC8B4">
            <g id="费用说明" transform="translate(1008.000000, 385.000000)">
                <path d="M28.7359451,33 L17.2639909,33 C16.0159959,33 15,31.9838441 15,30.7360091 L15,19.2638949 C15,18.0160599 16.0159959,17.000064 17.2639909,17.000064 L25.3799585,17.000064 C25.495958,17.000064 25.6041176,17.0439038 25.6841173,17.1239035 C25.7641169,17.2039032 25.8079568,17.3160627 25.8079568,17.4280623 C25.8079568,17.5439018 25.7641169,17.6520614 25.6841173,17.7320611 C25.6041176,17.8120608 25.492118,17.8560606 25.3799585,17.8560606 L17.2639909,17.8560606 C16.487994,17.8560606 15.8559966,18.488058 15.8559966,19.2638949 L15.8559966,30.7360091 C15.8559966,31.511846 16.487994,32.1438434 17.2639909,32.1438434 L28.7359451,32.1438434 C29.512102,32.1438434 30.1440994,31.511846 30.1440994,30.7360091 L30.1440994,19.2638949 C30.1440994,18.488058 29.512102,17.8560606 28.7359451,17.8560606 C28.6199455,17.8560606 28.512106,17.8120608 28.4321063,17.7320611 C28.3521066,17.6520614 28.3079468,17.5400618 28.3079468,17.4280623 C28.3079468,17.1920632 28.499946,17.000064 28.7359451,17.000064 C29.9841001,17.000064 30.999936,18.0160599 30.999936,19.2638949 L30.999936,30.7360091 C30.999936,31.9838441 29.9841001,33 28.7359451,33 Z M27.4559502,17.8559966 L26.759953,17.8559966 C26.6441134,17.8559966 26.5359539,17.8119968 26.4559542,17.7319971 C26.3759545,17.6519974 26.3321147,17.5399978 26.3321147,17.4279983 C26.3321147,17.3119988 26.3759545,17.2039992 26.4559542,17.1239995 C26.5359539,17.0439998 26.6479534,17 26.759953,17 L27.4559502,17 C27.5721097,17 27.6799493,17.0439998 27.759949,17.1239995 C27.8399486,17.2039992 27.8841085,17.3159987 27.8841085,17.4279983 C27.8841085,17.5439978 27.8399486,17.6519974 27.759949,17.7319971 C27.6799493,17.8119968 27.5679497,17.8559966 27.4559502,17.8559966 Z M18.9240323,25.5959656 L19.9640281,26.6399614 L21.004024,25.5999656 L21.7000212,26.2919628 L20.6600254,27.3359587 L21.7000212,28.3759545 L21.004024,29.0719517 L19.9640281,28.0279559 L18.9240323,29.0719517 L18.2280351,28.3759545 L19.2680309,27.3359587 L18.2280351,26.2919628 L18.9240323,25.5959656 Z M19.4720301,20.0519878 L20.4560262,20.0519878 L20.4560262,21.5279819 L21.9280203,21.5279819 L21.9280203,22.507978 L20.4560262,22.507978 L20.4560262,23.9799721 L19.4720301,23.9799721 L19.4720301,22.507978 L18.000036,22.507978 L18.000036,21.5279819 L19.4720301,21.5279819 L19.4720301,20.0519878 Z M24.1600114,28.9359523 L24.1600114,27.9559562 L28.0879956,27.9559562 L28.0879956,28.9359523 L24.1600114,28.9359523 Z M24.1600114,26.5799617 L24.1600114,25.5999656 L28.0879956,25.5999656 L28.0879956,26.5799617 L24.1600114,26.5799617 Z M24.1600114,22.507978 L24.1600114,21.5279819 L28.0879956,21.5279819 L28.0879956,22.507978 L24.1600114,22.507978 Z" id="费用明细"></path>
            </g>
        </g>
    </g>
</svg>